<svg id="Layer_1" data-name="Layer 1" xmlns="http://www.w3.org/2000/svg" viewBox="0 0 339.98 377.43"><defs><style>.cls-1{font-size:86.56px;font-family:Elephant-Regular, Elephant;}.cls-1,.cls-8{fill:#76bf44;}.cls-2{fill:#231f20;}.cls-3{fill:#262d64;}.cls-4{fill:#282f62;}.cls-5{fill:#2e3262;}.cls-6{fill:#83b959;}.cls-7{fill:#fdfdfc;}.cls-9{fill:#edf4e5;}.cls-10{fill:#363968;}.cls-11{fill:#2b3160;}.cls-12{fill:#99b97a;}.cls-13{fill:#7ebc50;}.cls-14{fill:#d9dae6;}.cls-15{fill:#82ba57;}.cls-16{fill:#89bb62;}.cls-17{fill:#59596b;}</style></defs><text class="cls-1" transform="translate(7.69 366.47)">PS<tspan class="cls-2" x="131.83" y="0"> </tspan><tspan class="cls-3" x="153.47" y="0">Lab</tspan></text><path class="cls-4" d="M103.42,137.91c.09-11.76,7.89-28.81,23.13-42.31,2.76-2.45,3.39-4.36,2.18-7.67-1.75-4.82-3-9.83-4.55-14.74-1.35-4.27-1.88-9-8.34-9.1-3.37-.08-4.88-3.58-5-6.79-.18-3.49,1.39-6.64,4.8-7.73Q139,42.16,162.53,35.22c3.72-1.11,6.93.42,8.72,3.82s1.7,7.35-1.66,9.8c-2.81,2-2.69,3.84-1.68,6.71,2.2,6.27,4.16,12.64,5.82,19.08.86,3.31,2.36,4.31,5.8,4.7,33.19,3.73,58.38,31.48,59.84,65.57,1.36,31.86-22.29,61.92-53.92,68.51C142.76,222.31,103.47,190.31,103.42,137.91Z"/><path class="cls-5" d="M150.82,7.86c3.47.7,5.81,2.89,5.58,6.58-.25,3.87-2.65,6.4-6.79,6s-6.11-2.9-5.61-7C144.45,9.66,146.85,7.89,150.82,7.86Z"/><path class="cls-6" d="M136.81,25.6a5.22,5.22,0,0,1-5.1,5.21c-3.1.27-5-1.65-5.18-4.75s1.32-5.3,4.46-5.47S136.15,22.47,136.81,25.6Z"/><path class="cls-7" d="M109.58,138.41c.28-11.86,8.23-28.3,24.22-40.61,2.77-2.13,3.22-4,2.23-7.09q-4.82-14.94-9.22-30c-.89-3.06-2-4.17-5.19-2.6-1.36.67-3.76,1.38-4.34-1s2.09-2.46,3.46-2.89c13.63-4.29,27.31-8.42,41-12.58,1.42-.43,3.26-1.29,4,.57,1,2.49-1.52,3-2.92,3.19-3.82.55-3.9,2.24-2.84,5.47,3.29,10,6.34,20,9.23,30.06.8,2.8,1.91,3.9,5,4.08,32.67,2,57.42,26.52,58.88,59.68,1.24,28-17.08,55.74-49.73,62.77C145.46,215.64,109.54,185.91,109.58,138.41Z"/><path class="cls-3" d="M180.81,104.46c.81-3.64,3.52-8.56-4.39-5.82-2.6.9-3.4-.81-3.63-3.4-.27-3.1,1.1-3.65,3.64-3.47A52.9,52.9,0,0,1,195.65,97c33.38,15.93,41.69,60.66,16.44,87.78a10,10,0,0,1-8.89,3.55c-9.35-.58-18.75-.37-28.13-.13-3.63.1-4.25-1.51-3.84-4.45a1.51,1.51,0,0,1,1.2-1.48c11.29-3.78,22.55-7.67,33.8-11.57.23-.08.29-.62.87-1.94-10.3,1-18.95,5.91-28.92,7.71.34-3.91,2.95-5.48,6-6.48,7.24-2.35,14.53-4.58,21.8-6.87,1.84-.57,4.52-.23,3.51-3.68s-3.1-1.29-4.53-.86c-9.67,2.9-19.27,6-28.92,9-3.31,1-6,2.43-5.93,7-4.73-5.05-9.75-7.48-16.17-4.59-1.35.61-2.49-.24-3.58-1.17-6-5.1-7.64-11.65-6.41-19.13,1.08-6.54,5.59-9.86,11.26-12.59s11.37,3.29,16.93-.23c1.67,3.11,3.6,6.12,2.64,10s-.09,4.63,3.65,3.42c4.71-1.52,9.42-3,14.05-4.75,1.5-.56,3.88-.43,4.16-2.46.24-1.81-1.19-2.85-3.06-3.45-.75-.24-1-1.91-1.52-2.93-3.66-2.2-3.05-6.37-4.25-9.63C185.12,119.65,181.9,112.37,180.81,104.46Z"/><path class="cls-8" d="M146.7,175.85c2,3.42.87,7.17.49,10.6-.26,2.41-3.53,1.27-5.49,1.68-5.55,1.19-9.24-1.32-12.68-5.45-20.16-24.17-16.75-61.95,10.85-81.23C144.82,98,150.29,96,155.69,93.6c4.19-1.84,6.4.72,8.24,3.74s1.12,5.35-2.25,6.83c-2.65,1.17-2.14,3.24-.31,4.31s2.19,3,3.2,4.47c4.61,7,1.46,11.55-4.6,15.27-5.34,3.29-11.84,3.66-17.14,7.3-13.5,9.26-15.13,30.79-3.22,42.07C143.58,181.35,144.78,178.16,146.7,175.85Z"/><path class="cls-9" d="M146.7,175.85c0,1-.13,1.91-.12,2.87,0,4.89-2.1,4.49-5.19,2.21-9-6.64-12.29-15.82-11.24-26.56,1-10.16,6.16-17.82,15.57-22.24A37,37,0,0,1,160,128.22c-3.55,5.65-10.46,6.46-15.13,10.49-4.23,1-5.76,4.64-7.64,7.88-3.58,6.15-2.75,22.27,4.58,26.79Z"/><path class="cls-10" d="M149,196.76h44.52C184.34,204.1,160.29,204.24,149,196.76Z"/><path class="cls-11" d="M146.41,66.25c-.42,3.78-2.47,6-6.25,6-4.1,0-6.45-2.45-6.38-6.43A5.83,5.83,0,0,1,140,59.73C144,59.74,146.11,62.23,146.41,66.25Z"/><path class="cls-12" d="M141.78,173.38c-4.56-2.18-7.22-6.85-8-14-.95-8.67,3.47-18.4,10.15-22,3.06-1.63,1.28.43.91,1.35C135.07,148.05,133.92,161.05,141.78,173.38Z"/><path class="cls-13" d="M159.17,175.51c3.55-.19,5.42,1.42,5.57,5s-1.89,4.9-4.91,5c-3.32.15-5.64-1.52-5.52-5C154.4,177.7,155.7,175.33,159.17,175.51Z"/><path class="cls-14" d="M180.81,104.46q5.63,16.11,11.27,32.22l-1.17,1.48c-2.5-1.54-1.95-4.56-3.27-6.68-1.53-6.59-4.8-12.57-6.83-19A13.33,13.33,0,0,1,180.81,104.46Z"/><path class="cls-15" d="M161.36,84c-.22,2.82-1.91,4.54-5,4.49s-5.11-1.58-5.21-4.76c-.12-3.55,2.43-5.14,5.42-5.24S161.09,80.62,161.36,84Z"/><path class="cls-16" d="M167.12,127.39a3.41,3.41,0,0,1,3.37,3.64,3,3,0,0,1-3.08,3.31,3.13,3.13,0,0,1-3.53-3.5A3.25,3.25,0,0,1,167.12,127.39Z"/><path class="cls-17" d="M187.64,131.48c2.19,1.69,1.63,4.72,3.27,6.68.53,2,.71,3.75-2.65,4.12C190.38,138.41,186.84,135.19,187.64,131.48Z"/><path class="cls-3" d="M73.19,193c10.11,6.36,10.59,13.21,6.24,23.51-7.91,18.72-.61,30.76,19.51,35.15,16.72,3.65,33,.42,50.66-4.87-16-9.55-30.55-18.47-43.53-29.67-15.25-13.15-29-27.55-38-45.85-18.71-37.93.35-67.56,43.75-66.69-3.49,8.07-5.26,15.56-16.28,17.85-16.13,3.35-21.31,14-17.54,30,1.72,7.26,5.1,13.65,9.41,20.5l14.06-12.59c4.2,8.58,9,16.56-1.46,23.74-3.54,2.42-.57,4.6,1.2,6.43,19.16,19.94,41.6,35.15,66.56,46.93,3.84,1.82,6.44.43,9.24-.93,23.24-11.27,44.38-25.51,62.71-43.88,4.34-4.35,5.86-7.41.36-11.72-9.12-7.14.23-13.4.7-21.29,16,14.19,28.9,29.24,36.66,48.13C291,240.85,273,267.6,236.16,269a112,112,0,0,1-27.85-2A197.45,197.45,0,0,1,182,259.55c8.39-4,14.71-11.88,26.17-8.94,11.92,3.06,24.32,3.93,36.63.84,18.57-4.65,24.88-15.15,19.41-33.23-1.9-6.27-4.49-12.37-9.43-18.17-15.06,15.53-31.49,29-50,39.7-30.06,17.33-61.6,29.94-97.09,29.25C81,268.47,62.91,254.24,60.6,232.09,59.52,221.73,64.4,206.59,73.19,193Z"/><path class="cls-3" d="M269.81,180.33c-8.9-6-11.62-12.25-6.91-23.06,8.32-19.1,1.14-32.13-19.16-36-10-1.9-7.72-11.17-15.52-17,20.48-.26,36.85,2.92,47.23,18.33C289.1,142.91,280.14,161.82,269.81,180.33Z"/></svg>