<svg xmlns="http://www.w3.org/2000/svg" xmlns:xlink="http://www.w3.org/1999/xlink" viewBox="0 0 664.29 818.57"><defs><style>.cls-1{isolation:isolate;}.cls-2{fill:#0d1d15;}.cls-3{fill:#1d1d1b;}.cls-4{fill:#f2a720;}.cls-5{fill:#eb7b23;}.cls-6{fill:#fff;}.cls-49,.cls-7{fill:#01ada9;}.cls-8{fill:#f26639;}.cls-9{fill:#10b57d;}.cls-10{fill:#ee81a2;}.cls-11{fill:#ed2024;}.cls-12{fill:#f3f3f3;}.cls-13{fill:#46c5e1;}.cls-14{fill:#8166ad;}.cls-15{fill:#085a8b;}.cls-16,.cls-21,.cls-25,.cls-29,.cls-30,.cls-32{mix-blend-mode:multiply;}.cls-16{fill:url(#radial-gradient);}.cls-17{fill:#e0e0df;}.cls-18{fill:#6fc2b5;}.cls-19,.cls-22,.cls-23,.cls-24,.cls-26,.cls-27,.cls-28,.cls-36,.cls-37,.cls-38,.cls-39,.cls-40,.cls-41,.cls-42,.cls-43,.cls-44,.cls-45,.cls-46,.cls-47,.cls-48{mix-blend-mode:screen;}.cls-19{fill:url(#linear-gradient);}.cls-20,.cls-30,.cls-34,.cls-35{opacity:0.8;}.cls-21{fill:url(#linear-gradient-2);}.cls-22{fill:url(#radial-gradient-2);}.cls-23{fill:url(#linear-gradient-3);}.cls-24{fill:url(#linear-gradient-4);}.cls-25{opacity:0.5;fill:url(#radial-gradient-3);}.cls-26{fill:url(#linear-gradient-5);}.cls-27{fill:url(#linear-gradient-6);}.cls-28{fill:url(#linear-gradient-7);}.cls-29{fill:url(#radial-gradient-4);}.cls-30{fill:url(#radial-gradient-5);}.cls-31{opacity:0.7;}.cls-32{fill:url(#linear-gradient-8);}.cls-33{fill:url(#linear-gradient-9);}.cls-34{fill:url(#linear-gradient-10);}.cls-35{fill:url(#linear-gradient-11);}.cls-36{fill:url(#linear-gradient-12);}.cls-37{fill:url(#linear-gradient-13);}.cls-38{fill:url(#radial-gradient-6);}.cls-39{fill:url(#radial-gradient-7);}.cls-40{fill:url(#radial-gradient-8);}.cls-41{fill:url(#radial-gradient-9);}.cls-42{fill:url(#radial-gradient-10);}.cls-43{fill:url(#radial-gradient-11);}.cls-44{fill:url(#radial-gradient-12);}.cls-45{fill:url(#radial-gradient-13);}.cls-46{fill:url(#radial-gradient-14);}.cls-47{fill:url(#radial-gradient-15);}.cls-48{fill:url(#radial-gradient-16);}.cls-49{font-size:153.72px;font-family:Elephant-Regular, Elephant;}</style><radialGradient id="radial-gradient" cx="337.57" cy="548.72" r="149.94" gradientUnits="userSpaceOnUse"><stop offset="0" stop-color="#fff"/><stop offset="0.21" stop-color="#fafaf9"/><stop offset="0.48" stop-color="#ebece9"/><stop offset="0.64" stop-color="#e0e1dd"/><stop offset="0.88" stop-color="#ccccca"/></radialGradient><linearGradient id="linear-gradient" x1="335.64" y1="511.81" x2="335.64" y2="522.06" gradientUnits="userSpaceOnUse"><stop offset="0" stop-color="#010101"/><stop offset="0.05" stop-color="#2d2d2c"/><stop offset="0.15" stop-color="#999a99"/><stop offset="0.25" stop-color="#fdfefc"/><stop offset="0.56" stop-color="#fdfefc"/><stop offset="0.59" stop-color="#ebecea"/><stop offset="0.64" stop-color="#bcbdbb"/><stop offset="0.72" stop-color="#707170"/><stop offset="0.81" stop-color="#090909"/><stop offset="0.82" stop-color="#010101"/></linearGradient><linearGradient id="linear-gradient-2" x1="253.51" y1="499.02" x2="475.33" y2="499.02" gradientUnits="userSpaceOnUse"><stop offset="0" stop-color="#1a1b18"/><stop offset="0.01" stop-color="#20211e"/><stop offset="0.06" stop-color="#5a5a58"/><stop offset="0.11" stop-color="#8a8a88"/><stop offset="0.16" stop-color="#afafad"/><stop offset="0.21" stop-color="#cacac8"/><stop offset="0.25" stop-color="#dadad8"/><stop offset="0.28" stop-color="#e0e0de"/><stop offset="0.31" stop-color="#d8d8d6"/><stop offset="0.39" stop-color="#bebdbd"/><stop offset="0.46" stop-color="#aeadad"/><stop offset="0.52" stop-color="#a8a7a8"/><stop offset="0.61" stop-color="#737372"/><stop offset="0.7" stop-color="#434442"/><stop offset="0.76" stop-color="#252623"/><stop offset="0.8" stop-color="#1a1b18"/></linearGradient><radialGradient id="radial-gradient-2" cx="281.96" cy="527.18" r="34.35" gradientUnits="userSpaceOnUse"><stop offset="0.58" stop-color="#fff"/><stop offset="0.73" stop-color="#fff"/><stop offset="0.81" stop-color="#a8a7a8"/><stop offset="0.84" stop-color="#737372"/><stop offset="0.88" stop-color="#434442"/><stop offset="0.91" stop-color="#252623"/><stop offset="0.92" stop-color="#1a1b18"/></radialGradient><linearGradient id="linear-gradient-3" x1="383.54" y1="459.76" x2="331.57" y2="488.75" gradientUnits="userSpaceOnUse"><stop offset="0.04" stop-color="#fff"/><stop offset="0.28" stop-color="#e0e0de"/><stop offset="0.52" stop-color="#a8a7a8"/><stop offset="0.67" stop-color="#737372"/><stop offset="0.82" stop-color="#434442"/><stop offset="0.94" stop-color="#252623"/><stop offset="1" stop-color="#1a1b18"/></linearGradient><linearGradient id="linear-gradient-4" x1="426.13" y1="536.11" x2="374.17" y2="565.1" xlink:href="#linear-gradient-3"/><radialGradient id="radial-gradient-3" cx="337.22" cy="424.03" r="110.56" gradientUnits="userSpaceOnUse"><stop offset="0.63" stop-color="#fff"/><stop offset="0.77" stop-color="#b2adad"/><stop offset="0.82" stop-color="#ccccca"/><stop offset="0.87" stop-color="#e0e1dd"/><stop offset="0.89" stop-color="#ebece9"/><stop offset="0.92" stop-color="#fafaf9"/><stop offset="0.94" stop-color="#fff"/></radialGradient><linearGradient id="linear-gradient-5" x1="322.06" y1="406.15" x2="322.06" y2="509.91" xlink:href="#linear-gradient"/><linearGradient id="linear-gradient-6" x1="300.3" y1="511.78" x2="295.55" y2="568.8" xlink:href="#linear-gradient"/><linearGradient id="linear-gradient-7" x1="306.11" y1="512.26" x2="301.36" y2="569.28" xlink:href="#linear-gradient"/><radialGradient id="radial-gradient-4" cx="337.98" cy="537.45" r="82.05" xlink:href="#radial-gradient-3"/><radialGradient id="radial-gradient-5" cx="334.53" cy="548.03" r="67.04" gradientTransform="translate(17.55) scale(0.95 1)" xlink:href="#radial-gradient-3"/><linearGradient id="linear-gradient-8" x1="322.25" y1="428.76" x2="262.08" y2="528.6" gradientUnits="userSpaceOnUse"><stop offset="0.04" stop-color="#1a1b18"/><stop offset="0.05" stop-color="#424340"/><stop offset="0.07" stop-color="#676865"/><stop offset="0.09" stop-color="#888886"/><stop offset="0.11" stop-color="#a3a4a1"/><stop offset="0.14" stop-color="#babab8"/><stop offset="0.17" stop-color="#cbcbc9"/><stop offset="0.21" stop-color="#d7d7d5"/><stop offset="0.26" stop-color="#dededc"/><stop offset="0.39" stop-color="#e0e0de"/><stop offset="0.39" stop-color="#dadad8"/><stop offset="0.42" stop-color="#a0a19e"/><stop offset="0.45" stop-color="#70716e"/><stop offset="0.48" stop-color="#4b4c49"/><stop offset="0.51" stop-color="#30312e"/><stop offset="0.53" stop-color="#20211e"/><stop offset="0.55" stop-color="#1a1b18"/><stop offset="0.79" stop-color="#a8a7a8"/></linearGradient><linearGradient id="linear-gradient-9" x1="339.06" y1="403.01" x2="367.23" y2="538.67" xlink:href="#linear-gradient-2"/><linearGradient id="linear-gradient-10" x1="270.58" y1="584.48" x2="333.94" y2="584.48" xlink:href="#linear-gradient-2"/><linearGradient id="linear-gradient-11" x1="390.7" y1="591.27" x2="339.83" y2="591.27" xlink:href="#linear-gradient-2"/><linearGradient id="linear-gradient-12" x1="324.51" y1="395.1" x2="349.88" y2="395.1" xlink:href="#linear-gradient"/><linearGradient id="linear-gradient-13" x1="388.54" y1="543.64" x2="373.38" y2="545.43" xlink:href="#linear-gradient-3"/><radialGradient id="radial-gradient-6" cx="177.34" cy="262.29" r="69.67" gradientUnits="userSpaceOnUse"><stop offset="0" stop-color="#fff"/><stop offset="0.14" stop-color="#d8d8d8"/><stop offset="0.93" stop-color="#010101"/></radialGradient><radialGradient id="radial-gradient-7" cx="221.93" cy="102.69" r="76.1" xlink:href="#radial-gradient-6"/><radialGradient id="radial-gradient-8" cx="246.79" cy="211.69" r="59.83" xlink:href="#radial-gradient-6"/><radialGradient id="radial-gradient-9" cx="164.35" cy="174.04" r="49.45" xlink:href="#radial-gradient-6"/><radialGradient id="radial-gradient-10" cx="388.75" cy="94.22" r="71.55" xlink:href="#radial-gradient-6"/><radialGradient id="radial-gradient-11" cx="381.21" cy="206.47" r="50.93" xlink:href="#radial-gradient-6"/><radialGradient id="radial-gradient-12" cx="451.17" cy="169.93" r="59.56" xlink:href="#radial-gradient-6"/><radialGradient id="radial-gradient-13" cx="434.91" cy="256.51" r="78.68" xlink:href="#radial-gradient-6"/><radialGradient id="radial-gradient-14" cx="315.18" cy="164.12" r="52.53" xlink:href="#radial-gradient-6"/><radialGradient id="radial-gradient-15" cx="318.18" cy="97.44" r="43.25" xlink:href="#radial-gradient-6"/><radialGradient id="radial-gradient-16" cx="329.33" cy="241.29" r="26.99" xlink:href="#radial-gradient-6"/></defs><g class="cls-1"><g id="Layer_1" data-name="Layer 1"><circle class="cls-2" cx="328" cy="332.14" r="290.02"/><path class="cls-3" d="M469,248.8v-4.55h.43A39.78,39.78,0,1,0,465,244v4.15a51.78,51.78,0,0,0-58.28,51.44,51.62,51.62,0,0,0,10.35,31.09V348l.06.47a4.32,4.32,0,0,1-.58,3.07c-.81,1.2-2.4,2-4.72,2.35-6.07.93-36.4.5-52.59.19V327.63h22c.32,0,8,.34,13.12-4.52,2.87-2.73,4.33-6.49,4.33-11.18V268.34a34.28,34.28,0,0,0,18.87-61.25,35.37,35.37,0,0,0-5.72-3.61v-21a47.52,47.52,0,1,0-4-.1v19.4a34.28,34.28,0,0,0-38.44,11.26,33.93,33.93,0,0,0-6.67,14.9,27.07,27.07,0,0,0-1.07,11.1c.93,12.33,0,64.91,0,65.44v.15l0,.15c0,.05.62,4.94-2.06,8.29a6.72,6.72,0,0,1-.8.8,10.6,10.6,0,0,0-2.78-6.08c-2.55-2.53-6.39-3.07-11.38-3.07h-.22c-2.42,0-4.09-.59-5.07-1.78-1.61-1.94-1-5-1-5l0-23.6a17.71,17.71,0,1,0-4-.44v23.48c-.16,1-.61,5.07,1.88,8.1,1.77,2.16,4.58,3.23,8.17,3.24,4.86,0,7.4.55,8.78,1.92,1,1,1.58,2.69,1.84,5.3a13.68,13.68,0,0,1-2.27.42H335.67c-2.63-5.94-8.68-7.84-12.34-7.91-.08,0-6.24.14-13.26.1.14-24.33.25-57.2-.21-61.21a3.4,3.4,0,0,1,.61-2.79,4.66,4.66,0,0,1,3.12-1.17h7.84a3.49,3.49,0,0,0,2.65-1.2c1.67-1.89,1.42-5.52,1.28-6.79v-7a34.3,34.3,0,1,0,9-67.9v-9.66a28.7,28.7,0,1,0-4,0v9.54a34.32,34.32,0,0,0-31.86,26c-7.07,0-12.35-.12-13.46-.14a7.79,7.79,0,0,0-2.19-.11,52.43,52.43,0,1,0-46.91,12.16v19.19a40,40,0,0,0-10,34.55c-22,0-42.17,0-44.67-.14-3.55-.21-3.72-3.35-3.68-4.4V235.63c.7,0,1.41.07,2.13.07a32.86,32.86,0,1,0-6.09-.57v12.33c-.16,3.21,1.68,8.12,7.41,8.45,1.11.07,5.49.11,11.86.13a46.47,46.47,0,0,0,1.2,92.42v2.71c-.11,1.17-.79,10.05,3.49,14.83a9.17,9.17,0,0,0,7.12,3h88.37v5.85c-.16,1-.54,4.58,1.67,7.28,1.5,1.81,3.75,2.73,6.69,2.73h17a14.14,14.14,0,0,1,2.78.24V450.9h4V437.78l2.68,0c0-.32-.06-10.57-.12-24.77h1.82V388.87a6.88,6.88,0,0,0-1.93-4.88c0-2.36,0-4.73,0-7.08a5.41,5.41,0,0,1,2.77.66V439.7h3.74c-.07,5.12-.12,8.48-.12,8.61l4,.07c0-1.11.27-15.84.35-31.09h2.83V346.07l3.13.06h.17l.16,0s2.89-.33,4.47,1.11a4.8,4.8,0,0,1,1.19,3.94c0,.58-.06,1.5-.08,2.71l-1.13,0h-.16l-.15,0c-2.26.31-6.63,2.68-7,9.47s0,75.71,0,78.64l4,0c0-.07,0-.88,0-2.25h3.18V388.4a8.7,8.7,0,0,1,1.15-4.62c0,25.31.18,56.12.19,58.19l4,0c0-.54-.18-34.94-.19-61.34a11.33,11.33,0,0,1,1.28-.43v47.68h4V379.64H447a9,9,0,0,0,7.17-2.91c2.58-3,2.21-7.32,2.1-8.26V351.41c.77,0,1.54.06,2.33.06A51.86,51.86,0,0,0,469,248.8ZM362.8,315.54c3.43-4.32,3-10,2.88-11.1.05-2.9.61-35.46.35-54.59a34.24,34.24,0,0,0,28.69,18.51v43.57c0,3.55-1,6.34-3.08,8.29-3.85,3.69-10.14,3.45-10.3,3.44H359.26v-4.15c0-.35,0-.65,0-1A11.53,11.53,0,0,0,362.8,315.54ZM353,320.31h.19a20.13,20.13,0,0,0,2.15-.34v3.69h-1.42c-16,0-16.71,14.55-16.72,14.77V342H337V323a19,19,0,0,0-.2-2.69ZM333,361.25a12.3,12.3,0,0,0-3.29-5.23,8.83,8.83,0,0,0-2.16-1.41c0-3,0-5.95,0-8.67l5.44,0Zm-12.51,8.06c-4.87-4.52-11.78-4.28-12.66-4.23h-6.14a16.36,16.36,0,0,1,.28-2.9v-4.34h21.6c0,4.93,0,10.16,0,15.48h-.15A13.22,13.22,0,0,0,320.51,369.31ZM319,373.57a74.57,74.57,0,0,1-12.15-.47A5.19,5.19,0,0,1,303.1,371a6.73,6.73,0,0,1-.89-1.94h5.85c.05,0,5.91-.4,9.75,3.17A9.66,9.66,0,0,1,319,373.57Zm-22-8.49v-7.24h1v3.74a23.44,23.44,0,0,0-.32,3.5Zm10.83-21.79c1.75,2,4.4,3,7.88,2.84,2.24-.1,5-.15,7.88-.18,0,2.5,0,5.15,0,7.92H302l0-24.77c0-15.51-6.8-16.89-17.17-17.23-2.7-.09-4.65-.84-5.81-2.22a6.8,6.8,0,0,1-1.27-4.8l0-.16v-.16c0-.28,0-9.1-.09-21.55a40.06,40.06,0,0,0,15.52-9.3c0,12.11-.12,28-.14,29.79a7.28,7.28,0,0,0,1.43,5.54c1.69,2.14,4.56,3.28,8.55,3.39,1,0,2,0,3,.06-.05,8.17-.12,15.89-.17,22.26C305.74,335.75,305.21,340.2,307.86,343.29Zm-68-62v-5.49a39.91,39.91,0,0,0,21,8.88v43.41H250c-3.66,0-6.38-.93-8.07-2.74a7.39,7.39,0,0,1-1.64-2.94,46.52,46.52,0,0,0-.38-41.11Zm25,62.5V332h17.05c2.73.15,10.59,1.48,11.18,5.44v16.42h-25.5a1.34,1.34,0,0,1-1.07-.48C264.91,351.65,264.65,346.56,264.85,343.76ZM297,337.09c-1-8.17-14.34-9-15-9H264.86V284.9h.54a40.3,40.3,0,0,0,8.35-.87c0,11.2.08,19.25.09,20.38a10.77,10.77,0,0,0,2.14,7.74c1.91,2.3,4.85,3.54,8.75,3.67,10.08.33,13.33,1.44,13.33,13.27v24.77h-1V337.09ZM327.6,342c0-8.54.11-14.66.23-16.4.28-3.67,1.21-4.8,1.6-5.11a1.17,1.17,0,0,1,.44-.22l.13.07h2.76A14.7,14.7,0,0,1,333,323v19C331.27,342,329.44,342,327.6,342Zm-4.27-29.57c.69,0,5.18.31,7.8,4h-.5a4.65,4.65,0,0,0-3.38.79c-1.94,1.34-3.07,4.08-3.37,8.14-.13,1.81-.21,8-.25,16.71-3,0-5.78.08-8.07.18s-3.76-.39-4.68-1.46c-1.4-1.62-1.23-4.47-1.05-5.42l0-.37c0-1.1.09-10.32.17-22.42C317.12,312.54,323.32,312.4,323.33,312.4ZM284.27,190.19l.48.07c.1,0,5.45.11,13,.14a34.26,34.26,0,0,0,23.62,37v8.07l0,.25a9,9,0,0,1-.22,3.66h-7.56a8.54,8.54,0,0,0-6.08,2.46,7.16,7.16,0,0,0-1.63,5.91c.41,3.58.35,33.82.18,60.72l-2.93-.06c-2.68-.07-4.58-.71-5.51-1.85a3.35,3.35,0,0,1-.65-2.52l0-.4c0-.26.22-21.5.12-34.38a40.13,40.13,0,0,0-19.48-62.72c0-2.58.07-4.64.11-6,.16-4.82,1.26-8.14,3.19-9.6A4.15,4.15,0,0,1,284.27,190.19Zm-36.54,9.5a52.16,52.16,0,0,0,27.9-8,22.44,22.44,0,0,0-1.79,8.78c0,1.21-.07,2.94-.1,5.09a40.18,40.18,0,0,0-33.83,8.27V199.11A53,53,0,0,0,247.73,199.69Zm-20.84,56.37a40.06,40.06,0,0,0,9.05,16v2.77a46.47,46.47,0,0,0-31.86-18.73Zm-22.17,109a5.27,5.27,0,0,1-4.16-1.73c-2.76-3.06-2.73-9.61-2.49-11.87v-2.83h.33a46.44,46.44,0,0,0,39.53-22,10.54,10.54,0,0,0,1,1.33c2.46,2.68,6.17,4,11,4.05H260.9v11.52c-.09,1.22-.51,9.06,2.71,12.54a5.32,5.32,0,0,0,4,1.76h25.5v7.24Zm113.62,15.86H301.45a4.47,4.47,0,0,1-3.61-1.28,5.75,5.75,0,0,1-.82-4.22V369h1.08a11.4,11.4,0,0,0,1.75,4.21,9,9,0,0,0,6.46,3.77,81.23,81.23,0,0,0,14.45.46,16.88,16.88,0,0,1,.42,3.62A17.22,17.22,0,0,0,318.34,380.94Zm9.24-8c0-4.62,0-9.16,0-13.5,1.35,1.51,2.79,4.59,2.79,10.9v3A9.63,9.63,0,0,0,327.58,373Zm9.57,7.85c0-.19-.11-.4-.17-.59V346h.17Zm14.58-36.51c-2.72-2.49-6.57-2.24-7.53-2.14l-3.08-.06v-3.59c.05-1.16.85-11.22,13.49-10.88h.68V354l-1.17,0c0-1.16.05-2,.08-2.59C354.36,348.32,353.52,345.94,351.73,344.3Zm-3.27,35.16a10.75,10.75,0,0,0-2.87,4.59c0-10.3,0-18.44.14-20.53.22-4.66,2.8-5.56,3.41-5.71l1,0c-.05,5-.07,12.25-.07,20.38A11.47,11.47,0,0,0,348.46,379.46Zm5.55-3c0-7.37,0-13.87.07-18.5l1.21,0v18.16C354.88,376.19,354.45,376.29,354,376.42Zm98.31-7.51s.49,3.33-1.18,5.26a5.15,5.15,0,0,1-4.14,1.51H359.26V358c16.32.31,46.78.74,53.19-.25,3.5-.53,6-1.92,7.45-4.11a8.19,8.19,0,0,0,1.16-5.9V335.36a51.64,51.64,0,0,0,31.24,15.71V368.6Z"/><path class="cls-4" d="M333,437.81h-4V368.48c0-6.92-1.73-10-3.18-11.31a4.19,4.19,0,0,0-3-1.23h-56.6a5.3,5.3,0,0,1-4-1.76c-3.22-3.47-2.8-11.31-2.72-12.54V263.09h4v78.78c-.21,2.8.06,7.89,1.67,9.63a1.34,1.34,0,0,0,1.07.49h56.32a8,8,0,0,1,5.82,2.15c3,2.7,4.59,7.52,4.59,14.34Z"/><path class="cls-4" d="M347.57,437.81h-4v-51.3a11.77,11.77,0,0,1,3.53-8.94c4.38-4.13,11.18-3.79,11.47-3.78h87.07a5.12,5.12,0,0,0,4.14-1.51c1.66-1.93,1.19-5.23,1.18-5.26l0-.31V308.53h4v58.05c.11.94.48,5.24-2.1,8.26a8.92,8.92,0,0,1-7.17,2.92H358.49c-.16,0-5.53-.25-8.64,2.71a7.85,7.85,0,0,0-2.28,6Z"/><path class="cls-4" d="M339.8,415.4h-4V336.54c0-.23.75-14.77,16.72-14.77H380c.16,0,6.44.24,10.3-3.44,2-2,3.08-4.75,3.08-8.3V260.68h4V310c0,4.69-1.45,8.45-4.33,11.18-5.1,4.86-12.79,4.54-13.11,4.52H353.29c-12.64-.33-13.44,9.73-13.49,10.88Z"/><path class="cls-5" d="M357.94,426h-4V317.62c0-4.76-.61-7.49-2-8.87s-3.92-1.94-8.78-1.92c-3.6,0-6.4-1.08-8.17-3.25-2.49-3-2-7.09-1.89-8.1v-27.1h4l0,27.66s-.57,3.1,1,5c1,1.19,2.66,1.81,5.08,1.78h.22c5,0,8.83.54,11.38,3.08,2.25,2.24,3.17,5.63,3.17,11.68Z"/><path class="cls-6" d="M348.91,440.08c0-3.37-.42-82.54,0-90.8a4.79,4.79,0,0,0-1.19-3.94c-1.58-1.45-4.44-1.12-4.47-1.12l-.16,0h-.17c-.18,0-19-.43-28.51,0-3.48.16-6.13-.8-7.88-2.84-2.65-3.09-2.12-7.54-2-8.57.25-28,.57-82.08,0-86.93a7.21,7.21,0,0,1,1.62-5.92,8.61,8.61,0,0,1,6.08-2.46h7.57a9,9,0,0,0,.22-3.66l0-.25v-18h4v17.88c.14,1.27.39,4.9-1.28,6.79a3.46,3.46,0,0,1-2.65,1.2h-7.84a4.71,4.71,0,0,0-3.12,1.17,3.4,3.4,0,0,0-.61,2.79c.73,6.33,0,84.27,0,87.59l0,.37c-.18,1-.35,3.81,1.05,5.43.92,1.06,2.51,1.55,4.68,1.45,9.21-.41,26.85,0,28.64,0,1-.11,4.81-.36,7.52,2.13,1.8,1.64,2.63,4,2.48,7.07-.42,8.15,0,89.76,0,90.58Z"/><path class="cls-6" d="M340.45,440.08c0-2.93-.33-71.73,0-78.64s4.68-9.16,6.95-9.47l.15,0h.16c.54,0,54.49,1.3,62.82,0,2.32-.36,3.9-1.15,4.72-2.35a4.23,4.23,0,0,0,.57-3.07l-.05-.47V310.92c0-6.1,1.61-10.29,4.78-12.48,3.52-2.42,7.7-1.42,9-1,14.36-.31,30.11-1,33-1.62.6-1.21,1.14-5.63,1.17-9.87V236h4v50c-.06,7.62-1.06,12.08-3,13.26-1.6,1-13.51,1.72-35.38,2.19h-.39l-.36-.14s-3.36-1.22-5.77.45c-2,1.39-3,4.57-3,9.2v35a8.09,8.09,0,0,1-1.15,5.89c-1.45,2.2-3.95,3.58-7.45,4.12-8.48,1.3-59.07.13-63.31,0-.61.14-3.19,1.05-3.41,5.7-.33,6.81,0,77.72,0,78.43Z"/><path class="cls-5" d="M328.22,411.1h-4V387a2.92,2.92,0,0,0-.88-2.23c-1.62-1.56-5.08-1.78-6.27-1.74h-17c-2.94,0-5.2-.92-6.69-2.74-2.22-2.7-1.83-6.3-1.67-7.28V335.56c-.59-4-8.45-5.29-11.18-5.44,0,0-19.08,0-31.93,0-4.84,0-8.54-1.37-11-4.05a12.25,12.25,0,0,1-3-8.51V189.39h4V317.77a8.35,8.35,0,0,0,2,5.65c1.69,1.81,4.41,2.73,8.06,2.74,12.89,0,32,0,32,0,.68,0,14.08.87,15,9v.23l0,38.12a5.85,5.85,0,0,0,.82,4.22,4.51,4.51,0,0,0,3.62,1.28H317c.52,0,6-.16,9.09,2.84a6.86,6.86,0,0,1,2.11,5.09Z"/><path class="cls-6" d="M322.55,435.9c0-4.26-.6-104.26,0-112.51.3-4.06,1.43-6.8,3.37-8.13a4.7,4.7,0,0,1,3.38-.8h22.23a9.43,9.43,0,0,0,6.81-3.25c2.68-3.35,2.06-8.24,2.06-8.29l0-.14v-.16c0-.53.93-53.11,0-65.44-1-13.59,4.77-16.47,5.43-16.76l.38-.16h.42c.21,0,21.18.18,31,0,7.41-.13,8.76-4.1,8.95-4.85V174.17h4l0,41.73c-.05.33-1.31,8.12-12.82,8.33-8.95.16-27.08,0-30.54,0-.8.67-3.49,3.59-2.8,12.65.92,12.32.07,62.06,0,65.67.12,1.09.56,6.78-2.87,11.11-2.2,2.77-5.45,4.37-9.67,4.76H328.68l-.13-.08a1.1,1.1,0,0,0-.44.22c-.39.32-1.33,1.44-1.6,5.11-.6,8.09,0,111.15,0,112.19Z"/><path class="cls-6" d="M336.62,446.49l-4-.07c0-.5.84-50.23,0-62.61-.26-3.81-1.34-6.51-3.12-7.82a5.35,5.35,0,0,0-4-.89l-.23,0c-.45.05-11.09,1.27-20.31,0a9.07,9.07,0,0,1-6.47-3.78c-2.95-4.2-2-10.4-1.78-11.66V327.21c0-11.83-3.25-12.94-13.33-13.27-3.9-.13-6.84-1.36-8.75-3.67a10.76,10.76,0,0,1-2.14-7.73c0-3.9-.46-89.82,0-104,.2-6.21,1.83-10.48,4.84-12.7a8.27,8.27,0,0,1,6.36-1.43c2,0,17.92.32,33.26,0,5.64-.12,9.52-1.38,11.22-3.65a4.83,4.83,0,0,0,.9-3.81l-.06-.25V145.18h4v31a9,9,0,0,1-1.63,6.91c-2.5,3.32-7.31,5.08-14.31,5.23-16.41.35-33.46,0-33.63,0l-.48-.07a4.18,4.18,0,0,0-3.29.77c-1.92,1.46-3,4.78-3.18,9.6-.46,14.36,0,103.08,0,104v.16l0,.16a6.82,6.82,0,0,0,1.27,4.81c1.16,1.37,3.11,2.12,5.81,2.21,10.37.34,17.17,1.73,17.17,17.23l0,33.09c-.33,1.54-.76,6.15,1.11,8.79a5.19,5.19,0,0,0,3.75,2.12,90.7,90.7,0,0,0,19.22,0,9.42,9.42,0,0,1,7.14,1.59c2.79,2,4.38,5.66,4.72,10.74C337.46,396.09,336.65,444.44,336.62,446.49Z"/><path class="cls-4" d="M335.66,421.57h-4V321.11c0-10-8.7-10.57-9.7-10.6,0,0-10.86.25-20.25,0-4-.1-6.87-1.24-8.55-3.39a7.28,7.28,0,0,1-1.43-5.54c0-2.44.31-31.58,0-40.84-.09-2.58-.79-4.45-2.1-5.54a5.84,5.84,0,0,0-4.13-1.19l-.27,0c-4.07,0-99.7.33-105.54,0s-7.57-5.24-7.42-8.45V229.13h4v16.54c0,1,.13,4.19,3.68,4.39,5.64.33,101.49,0,105.19,0a10,10,0,0,1,7.08,2.1c2.2,1.85,3.38,4.7,3.5,8.45.32,9.7,0,40.86,0,41.18l0,.39a3.34,3.34,0,0,0,.65,2.52c.92,1.14,2.82,1.78,5.51,1.85,9.3.24,20,0,20.16,0,4.78.1,13.65,3.27,13.65,14.56Z"/><path class="cls-4" d="M323.84,449h-4V379.55c0-4-1.13-7.14-3.38-9.23-3.84-3.57-9.7-3.18-9.76-3.17H203.39a9.17,9.17,0,0,1-7.11-3.05c-4.29-4.78-3.6-13.66-3.49-14.83V302.66h4v46.93c-.24,2.26-.27,8.81,2.49,11.88a5.25,5.25,0,0,0,4.15,1.72H306.53c.88-.05,7.79-.29,12.66,4.23,3.09,2.86,4.65,6.94,4.65,12.13Z"/><path class="cls-7" d="M298.84,145.38A52.43,52.43,0,1,1,246.41,93,52.43,52.43,0,0,1,298.84,145.38Z"/><path class="cls-6" d="M234.91,113.18a3.23,3.23,0,0,1,.45,1.67v49.87c0,4.64-5.43,4.64-5.43,4.64a5.08,5.08,0,0,1-5.44-4.64V114.85a3.33,3.33,0,0,1,.45-1.67h-.64a3.08,3.08,0,0,0-.53,1.74v51c0,1.72,1.78,4.75,6.21,4.75,0,0,6.2,0,6.2-4.75v-51a3.08,3.08,0,0,0-.53-1.74Z"/><path class="cls-6" d="M237.19,113a1,1,0,0,1-1,1H223.49a1,1,0,0,1-1-1h0a1,1,0,0,1,1-1h12.69a1,1,0,0,1,1,1Z"/><path class="cls-6" d="M251.45,113.18a3.33,3.33,0,0,1,.45,1.67v49.87c0,4.64-5.44,4.64-5.44,4.64a5.07,5.07,0,0,1-5.43-4.64V114.85a3.23,3.23,0,0,1,.45-1.67h-.65a3.08,3.08,0,0,0-.53,1.74v51c0,1.72,1.78,4.75,6.21,4.75,0,0,6.21,0,6.21-4.75v-51a3.08,3.08,0,0,0-.53-1.74Z"/><path class="cls-6" d="M253.72,113a1,1,0,0,1-1,1H240a1,1,0,0,1-1-1h0a1,1,0,0,1,1-1h12.69a1,1,0,0,1,1,1Z"/><path class="cls-6" d="M269,113.18a3.33,3.33,0,0,1,.45,1.67v49.87c0,4.64-5.43,4.64-5.43,4.64a5.08,5.08,0,0,1-5.44-4.64V114.85a3.33,3.33,0,0,1,.45-1.67h-.65a3.08,3.08,0,0,0-.53,1.74v51c0,1.72,1.78,4.75,6.21,4.75,0,0,6.21,0,6.21-4.75v-51a3.16,3.16,0,0,0-.53-1.74Z"/><path class="cls-6" d="M271.3,113a1,1,0,0,1-1,1H257.6a1,1,0,0,1-1-1h0a1,1,0,0,1,1-1h12.69a1,1,0,0,1,1,1Z"/><path class="cls-6" d="M225.23,164.25a4.62,4.62,0,0,0,4.65,4.53s4.66,0,4.66-4.53V130.17h-9.31Zm1.89-31.77h2.09a.63.63,0,1,1,0,1.25h-2.09a.63.63,0,1,1,0-1.25Zm0,15.46h2.09a.63.63,0,1,1,0,1.25h-2.09a.63.63,0,1,1,0-1.25Zm0,16.29h2.09a.63.63,0,1,1,0,1.26h-2.09a.63.63,0,1,1,0-1.26Z"/><path class="cls-6" d="M241.76,164.25a4.62,4.62,0,0,0,4.66,4.53s4.65,0,4.65-4.53V130.17h-9.31Zm1.89-31.77h2.09a.63.63,0,1,1,0,1.25h-2.09a.63.63,0,1,1,0-1.25Zm0,15.46h2.09a.63.63,0,1,1,0,1.25h-2.09a.63.63,0,1,1,0-1.25Zm0,16.29h2.09a.63.63,0,1,1,0,1.26h-2.09a.63.63,0,1,1,0-1.26Z"/><path class="cls-6" d="M259.33,130.17v34.08a4.63,4.63,0,0,0,4.66,4.53s4.66,0,4.66-4.53V130.17Zm4,35.32h-2.09a.63.63,0,1,1,0-1.26h2.09a.63.63,0,1,1,0,1.26Zm0-16.3h-2.09a.63.63,0,1,1,0-1.25h2.09a.63.63,0,1,1,0,1.25Zm0-15.46h-2.09a.63.63,0,1,1,0-1.25h2.09a.63.63,0,1,1,0,1.25Z"/><path class="cls-6" d="M278.85,125a1.5,1.5,0,0,1-1.5,1.5H215.47A1.5,1.5,0,0,1,214,125h0a1.5,1.5,0,0,1,1.5-1.5h61.88a1.5,1.5,0,0,1,1.5,1.5Z"/><path class="cls-6" d="M278.85,160.57a1.5,1.5,0,0,1-1.5,1.49H215.47a1.5,1.5,0,0,1-1.5-1.49h0a1.5,1.5,0,0,1,1.5-1.5h61.88a1.5,1.5,0,0,1,1.5,1.5Z"/><path class="cls-6" d="M278.85,174.37a1.5,1.5,0,0,1-1.5,1.5H215.47a1.5,1.5,0,0,1-1.5-1.5h0a1.5,1.5,0,0,1,1.5-1.49h61.88a1.5,1.5,0,0,1,1.5,1.49Z"/><path class="cls-6" d="M221,172.3a2.07,2.07,0,0,1-2.07,2.07h0a2.07,2.07,0,0,1-2.07-2.07V126.48a2.07,2.07,0,0,1,2.07-2.07h0a2.07,2.07,0,0,1,2.07,2.07Z"/><path class="cls-6" d="M276.92,172.3a2.08,2.08,0,0,1-2.08,2.07h0a2.08,2.08,0,0,1-2.08-2.07V126.48a2.08,2.08,0,0,1,2.08-2.07h0a2.08,2.08,0,0,1,2.08,2.07Z"/><circle class="cls-8" cx="330.47" cy="120.58" r="28.52"/><path class="cls-6" d="M330.48,101.75a19.6,19.6,0,1,0,19.59,19.6A19.6,19.6,0,0,0,330.48,101.75Zm0,36.08A16.48,16.48,0,1,1,347,121.35,16.48,16.48,0,0,1,330.48,137.83Z"/><path class="cls-6" d="M330.48,124.11a2.68,2.68,0,1,1,2.67-2.68A2.68,2.68,0,0,1,330.48,124.11Z"/><path class="cls-6" d="M336,120.39l9.59,1.47c0-.17,0-.34,0-.51a15.11,15.11,0,0,0-8.81-13.74l-3.6,8.67A5.57,5.57,0,0,1,336,120.39Z"/><path class="cls-6" d="M327.48,116.45l-3.61-8.71a15.14,15.14,0,0,0-8.51,13.61c0,.3,0,.6,0,.9l9.55-1.45A5.56,5.56,0,0,1,327.48,116.45Z"/><path class="cls-6" d="M339.3,133.63,333.12,126a5.6,5.6,0,0,1-5.1.09l-5.9,7.82a15.12,15.12,0,0,0,17.18-.32Z"/><path class="cls-9" d="M507.92,202.56a39.82,39.82,0,1,1-39.82-39.82A39.82,39.82,0,0,1,507.92,202.56Z"/><path class="cls-6" d="M494.47,215.43c-.71-3.73-2.67-7.86-1.52-11.49a6.29,6.29,0,0,1,1-1.83,29,29,0,0,0-3.8,2.15,14.37,14.37,0,0,0-1.07-4.87,41.8,41.8,0,0,0-4.2-7A8.7,8.7,0,0,1,483.3,188a2.46,2.46,0,0,1,0-.28,4.37,4.37,0,0,1,.06-1.48,8.29,8.29,0,0,1,.94-2.49c-2.28,1.34-4.57,3-5.76,5.37a16.61,16.61,0,0,1-1.42-1.7,9.81,9.81,0,0,1-2.22-6.51,10.3,10.3,0,0,1,1.93-5.14,19.78,19.78,0,0,1,5.92-7.1c-7.74,4-14.91,9.35-19.47,16.91a20.48,20.48,0,0,0-2.18,4.84,9.24,9.24,0,0,0-.89-1.06,6,6,0,0,0-2-1.29,13.38,13.38,0,0,1-.56,5c-.54,1.75-3.53,6.1-3.67,6.31s-.39.6-.62,1a7.3,7.3,0,0,0-1.68-1.32,8.65,8.65,0,0,0-2.17-.87c0-.09-.07-.18-.1-.26.76,2.38-.34,5.19-1.67,7.49-1.67,2.85-4.3,5.42-5.44,8.55a11.11,11.11,0,0,0-.59,5.64,13.08,13.08,0,0,0,4,7,13.57,13.57,0,0,0,3.42,2c.44.14.9.26,1.35.37a14.41,14.41,0,0,0,3.41.77.94.94,0,0,0,.1.1l.35,0a11.44,11.44,0,0,1-2.11-4.55c-.36-1.66-.92-3.79-.43-5.54a13.64,13.64,0,0,1,1.59-6,7.62,7.62,0,0,0,.42,2.41,6.79,6.79,0,0,0,1.58,2.52A10,10,0,0,0,457.2,220c-.13-.24-.25-.49-.36-.74l-.07-.07s0-.1,0-.16a5.57,5.57,0,0,1-.36-2.3,6,6,0,0,1,1.82-3.73l.16-.29c1.08-1.83,2.48-3.44,2.76-5.52a13.84,13.84,0,0,1,2.12,2.07,6.37,6.37,0,0,1,.41.72,10.29,10.29,0,0,1,.8,1.25l0-.06c.54-.63,1.07-1.21,1.58-1.78a21.9,21.9,0,0,0,1.73-2.51c.84-1.49,2-4,1.85-6.11a7.92,7.92,0,0,1,.58.58,22.49,22.49,0,0,1,2.67,4.07,9,9,0,0,1,.42,7.54c0,.26-.09.51-.14.76a10.65,10.65,0,0,0,3.4-3.92,1,1,0,0,1,.09-.15,13.38,13.38,0,0,0,.78-2.39,15.3,15.3,0,0,1,1.27,3.21,15.65,15.65,0,0,1,1.12,5c0,.26,0,.51,0,.77a10.05,10.05,0,0,1-.64,4.94l.09-.17a11.75,11.75,0,0,1,3.28-1.21,9.58,9.58,0,0,1,1.59-.19c.18,0,.51,1,.33,1.69.3,1.93-2.47,4.34-5.31,5.74,2.36,1.44,6.14,1.22,8.48.52,4-1.19,6.3-3.81,6.91-7.38Zm-46.78-5.89c-1.48,1.49-3.22,3-4,5-1.19,2.91-.23,5.56.89,8.3.08.18-.25.42-.36.22-2.05-3.59-2.72-7.8,0-11.19,1.31-1.61,2.95-2.92,4.25-4.53,1.46-1.83,3.12-4.53,2.39-7,0-.09.1-.19.16-.1C453.12,203.28,449.68,207.52,447.69,209.54Zm6.66,2.15c-1.58,2-3.06,4.05-3.55,6.63a12.5,12.5,0,0,0,1.3,8.26c0,.1-.09.23-.16.13-1.63-2.42-2.62-4.91-1.95-7.87s2.3-5,4.25-7.24C454.32,211.52,454.43,211.61,454.35,211.69Zm.7-11.16c-.07.11-.24.07-.18-.06,1.69-3.62,5-6.52,3.95-10.92,0-.09.12-.22.18-.11a6.77,6.77,0,0,1,0,5.54,9.45,9.45,0,0,1-1.46,2.61A24.21,24.21,0,0,0,455.05,200.53Zm4.35,8.69c-.84,1.44-2.26,2.74-2.79,4.31-.05.17-.39.29-.37,0a5.17,5.17,0,0,1,1.42-2.77,12.88,12.88,0,0,0,2.68-5.92c0-.09.17-.16.18,0A7.84,7.84,0,0,1,459.4,209.22Zm8.24-4.26a.15.15,0,0,1-.26-.16c.8-1.71,1.77-3.93,1.41-5.85,0-.06.08-.11.1,0A7,7,0,0,1,467.64,205Zm1.78-24.72a42.59,42.59,0,0,0-3.21,4.68,17.07,17.07,0,0,0-1.78,5.31c-.06.26-.49.36-.5,0-.18-3.87,2.25-7.2,4.57-10.06a37.1,37.1,0,0,1,9.11-8c.12-.08.22.09.1.17A36.07,36.07,0,0,0,469.42,180.24ZM481,216.55a38.78,38.78,0,0,0-1.29-5.82c-.32-.87-.83-1.62-1.17-2.46a11.88,11.88,0,0,0-1.19-2.46c-.05-.06.06-.15.11-.09a19.85,19.85,0,0,1,1.61,2.74,11.84,11.84,0,0,1,1.05,2.07,18.75,18.75,0,0,1,1.15,5.93C481.27,216.59,481,216.72,481,216.55Z"/><path class="cls-10" d="M364.78,192.84a34.31,34.31,0,1,1-34.3-34.31A34.31,34.31,0,0,1,364.78,192.84Z"/><path class="cls-6" d="M313.67,187l.35-.71.23.77,2.5,8.51c.7,2.33,1.35,4.66,2,7l2.94-8.51.41-1.2.6,1.12c.91,1.71,1.79,3.43,2.68,5.14l.69-10.24.16-2.31.78,2.18,2.19,6.07,1.83,5.12,2.41-5.29.1-.21h.23c3.6,0,7.19.07,10.79.14,3.17.06,6.33.11,9.5.19,2.92-7.67.9-14.73-6.41-17.46-6.73-2.51-13.53,2.61-16.49,7.12h0c0,.09-.14.19-.18.28h0c-2.85-4.58-9.8-9.95-16.67-7.39-8,3-9.65,11.18-5.42,19.68.57-1.21,1.15-2.42,1.72-3.62C311.63,191.23,312.63,189.1,313.67,187Z"/><path class="cls-6" d="M344.57,195c-3.52.08-7,.1-10.55.14l-2.65,6-.41.93-.36-1-2.26-6-1.43-3.88-.59,9.83-.11,1.91-.89-1.69c-1-1.9-2-3.79-3-5.69l-3.14,8.78-.53,1.51-.42-1.54c-.77-2.85-1.57-5.7-2.32-8.56L313.85,188c-1,1.85-1.94,3.69-2.92,5.53-.64,1.22-1.3,2.44-1.95,3.65,3.51,6.92,10.92,14,22,18.66h0c12.34-5.17,20.14-13.38,23.06-21C350.89,194.9,347.73,195,344.57,195Z"/><path class="cls-9" d="M211.26,201a32.86,32.86,0,1,1-32.86-32.85A32.86,32.86,0,0,1,211.26,201Z"/><path class="cls-6" d="M194.57,189.73c-.86.64-4.82,3.27-5.78,4-1.93,1.51-3.6,3.31-5.51,4.84-.11.09-.14.21-.07.2l.85-.66c.23-.17.45-.37.69-.53l4.33-3.42c1.8-1.44,3.91-3,5.52-4.41C194.65,189.74,194.65,189.68,194.57,189.73Z"/><path class="cls-6" d="M180.35,193.46c.23-.18,3.71-2.61,5.15-3.75,1.81-1.44,3.78-3.25,5.39-4.62.06-.05.05-.11,0-.06-.86.64-1.76,1.35-2.61,2l-2.91,2.29c-1.92,1.52-3.86,3-5.77,4.57-.11.08-.14.2-.07.19Z"/><path class="cls-6" d="M182.45,198.71c-.46-.69-2.59-3.44-3.2-4.1,0,0,0,0,0-.06v0a.18.18,0,0,1,0-.16.87.87,0,0,1,.17-.22c-.18.1-.37.25-.39.41a.2.2,0,0,0,.08.19c.06.09,1.48,1.89,1.65,2.11.56.7,1.1,1.42,1.73,2.08a.2.2,0,0,0,.08.08.41.41,0,0,0,.37-.1s0,0,0,0C182.66,199,182.58,198.82,182.45,198.71Z"/><path class="cls-6" d="M195.28,187.35l-.08.07-2-2.57.07,0c1.14-.91,2.37-2,3.38-2.91,0,0,0-.07,0,0-.54.4-1.1.85-1.64,1.27l-1.83,1.44-.12.09-1.44-1.8a.55.55,0,0,0-.84.68l1.43,1.79-.05,0-.45-.55c0-.05-.08-.12-.17-.13a.72.72,0,0,0-.47.28.72.72,0,0,1,.29-.12.23.23,0,0,1,.15.06s0,0,0,0,.24.35.43.59c-.79.62-1.57,1.23-2.35,1.86l-.32-.39a.29.29,0,0,0-.41,0,.29.29,0,0,0-.08.4l.4.5a.16.16,0,0,0,0,.07l1,1.32c.32.4.63.81,1,1.18l.62.78a.28.28,0,0,0,.41,0,.29.29,0,0,0,.09-.4l-.38-.48.36-.27.43-.33,1.58-1.25c.17.21.31.37.41.48a.49.49,0,0,1,.08.51s0,0,0,0,.2-.26.17-.35a.21.21,0,0,0-.06-.1,7.37,7.37,0,0,0-.47-.67l.08-.07,1.38,1.72a.56.56,0,0,0,.85-.68l-1.37-1.71.05,0c1.14-.9,2.47-1.91,3.48-2.78,0,0,0-.06,0,0C198.38,185.21,195.89,186.87,195.28,187.35Zm-3.38,3-2.3-2.87.38-.29,2.05-1.47c.6.79,1.49,1.89,2.11,2.64C193.4,189,192.68,189.69,191.9,190.32Zm2.4-2.14c-.31-.43-.65-.84-1-1.26l-1.1-1.38s0,0,.06,0l2.1,2.61Zm.55-.23a.33.33,0,0,1-.47,0l-3.55-4.44a.34.34,0,0,1,.1-.46.33.33,0,0,1,.47,0l3.56,4.44A.34.34,0,0,1,194.85,188Z"/><path class="cls-6" d="M199.16,184.4c-.31-.47-.68-.91-1-1.36l-1-1.31s-.06-.08-.11-.08-.21.08-.3.17a.34.34,0,0,1,.18-.07.11.11,0,0,1,.1,0h0c.32.47,1.69,2.18,2,2.56a.29.29,0,0,1,0,.32h0a.29.29,0,0,0,.12-.22Z"/><path class="cls-6" d="M179.36,195.09s-.72.44-.65.62,2.72,3.46,2.72,3.46a.19.19,0,0,0,.29,0c.16-.15.54-.47.54-.47A11.36,11.36,0,0,1,179.36,195.09Z"/><path class="cls-6" d="M179,196.13s-.54.33-.49.47,2,2.59,2,2.59a.14.14,0,0,0,.22,0c.12-.12.41-.35.41-.35A8.48,8.48,0,0,1,179,196.13Z"/><polygon class="cls-6" points="179.24 197.89 165.7 207.71 179.57 198.3 179.24 197.89"/><path class="cls-6" d="M194.26,185.88l3.5-2.71s.06-.11.18.1.88,1,.91,1.1,0,.2-.21.32l-3.37,2.36s-.09.2-.21,0-.8-1.08-.8-1.08Z"/><path class="cls-6" d="M193.89,188.38a2.42,2.42,0,0,0-.4-.55c-.2-.23-.4-.47-.58-.71l-2,1.73v.09s.75.83.87,1,.21,0,.21,0l1.87-1.48S193.9,188.4,193.89,188.38Z"/><path class="cls-6" d="M188.6,187.45c-.14-.19-.59.32-.59.32s-1.37,1.21-2.68,2.27-5.78,4.22-5.78,4.22c-.36.3.53,1.13,1.1,1.78a24.09,24.09,0,0,1,1.77,2.42c.24.38.43.21.75,0s2.07-1.85,3.71-3.3,4.61-3.53,4.73-3.61a.36.36,0,0,0,.14-.21Zm-7.91,6.7c.42-.41.56.11.56.11C181.25,194.83,180.26,194.56,180.69,194.15Zm2.65-2c1.62-1,4.35-3.72,5.11-3.78s.25,1,.25,1c-.65,1-5.38,4.55-6.17,4.5S181.72,193.12,183.34,192.18Zm-.67,5.78c-.08.06-.16.08-.18,0l-.4-.51s0-.1.1-.16.16-.09.18-.06l.4.52S182.75,197.9,182.67,198Zm.94-.73c-.08.07-.16.09-.19.06l-.39-.51s0-.1.09-.16.17-.09.19-.06l.39.51S183.68,197.18,183.61,197.23Zm.93-.72c-.08.06-.16.09-.18.06l-.4-.51s0-.11.1-.17.16-.08.19,0l.39.51S184.62,196.45,184.54,196.51Zm.94-.72c-.08.06-.16.08-.19.05l-.39-.51s0-.1.1-.16.16-.09.18-.06l.4.51S185.56,195.73,185.48,195.79Zm.94-.73c-.09.06-.17.09-.19.06l-.39-.51s0-.11.09-.17.16-.08.19-.05l.39.51S186.49,195,186.42,195.06Zm.93-.72c-.08.06-.16.08-.18.06l-.4-.52s0-.1.1-.16.16-.09.18-.05l.4.51S187.43,194.28,187.35,194.34Zm.94-.72c-.08.06-.17.08-.19,0l-.4-.51s0-.1.11-.16.16-.09.18-.06l.4.51S188.36,193.55,188.29,193.62Zm.93-.73c-.08.06-.16.09-.18.06l-.4-.51s0-.11.1-.17.16-.08.19-.05l.39.51S189.3,192.83,189.22,192.89Zm.94-.72c-.08.06-.16.08-.19.05l-.39-.51s0-.1.1-.16.16-.09.18-.06l.4.51S190.24,192.11,190.16,192.17Zm.93-.73c-.07.07-.16.09-.18.06l-.4-.51s0-.1.1-.16.17-.09.19-.06l.39.51S191.17,191.38,191.09,191.44Z"/><path class="cls-6" d="M200.6,184.37l-3.12-3.93a.59.59,0,0,0-.84-.09.58.58,0,0,0-.1.83l3.12,3.94a.6.6,0,0,0,.83.09A.6.6,0,0,0,200.6,184.37Zm-1.65-.79a.34.34,0,0,1-.43-.12l-1.87-2.37c-.12-.16-.13-.35,0-.44a.33.33,0,0,1,.42.12l1.88,2.37A.32.32,0,0,1,199,183.58Z"/><path class="cls-6" d="M168.8,218c-2.14-5.52-2.68-8.13-3.1-9.19a46.41,46.41,0,0,1-2.28,7.53c-1.38,3.16-1.6,6.81,1.14,8.18S170.81,223.17,168.8,218Zm-4.32,2a1.89,1.89,0,0,0,.07.67c-.91-.75-.84-2.18-.34-3.52.21.1.43.18.64.26A22.74,22.74,0,0,0,164.48,220Zm.5-3.22c-.18-.07-.35-.14-.53-.23a22.74,22.74,0,0,0,1-3.44c0,.06,0,.13.07.2A33.84,33.84,0,0,1,165,216.75Z"/><path class="cls-9" d="M351,265.67A17.61,17.61,0,1,1,347.88,241,17.62,17.62,0,0,1,351,265.67Z"/><path class="cls-6" d="M348.44,250.25c-.39-4.63-5.3-6.67-5.3-6.67-5.58-2.43-11.12,2.33-11.12,2.33L323.77,252a.19.19,0,0,0-.1.16l-.09,3.85a.2.2,0,0,0,.06.14l1,.81c.42.35.86.71,1.29,1.08a.18.18,0,0,0,.18.18.19.19,0,0,0,.17-.11l8.3-6.15a8,8,0,0,1,4.54-1.61,4.41,4.41,0,0,1,3.89,2.12,1.71,1.71,0,0,1,.13.23,10.71,10.71,0,0,1-1.6,2.6L334.66,261l-1,.61a.19.19,0,0,0-.09.16v3.77a.16.16,0,0,0,.06.13c1.14,1.13,2.36,2.28,3.6,3.43h0l0,0,0,0h.13l0,0,0,0,8.88-8.27,0,0A11,11,0,0,0,348.5,255h0A21,21,0,0,0,348.44,250.25Zm-.22,3.28a3.89,3.89,0,0,0-.46,1.11c-.23.64-.42,1.3-.63,1.95a28.48,28.48,0,0,0-1.16,4.13l-.62.58c.41-1,.62-2.15.95-3.19l.63-2c.2-.43.38-.87.54-1.31a11.31,11.31,0,0,0,.76-2.11C348.23,253,348.23,253.25,348.22,253.53Zm-3.86,8.7c.18-.41.32-.84.48-1.25.34-.84.68-1.67,1-2.51l.07-.16a32.73,32.73,0,0,1-1.11,3.48Zm-1.16,1.08c.61-1.3,1.3-2.56,1.84-3.88.28-.68.5-1.39.77-2.08l.42-.38q-1.11,2.76-2.19,5.55Zm-1.44,1.34c.19-.41.37-.82.56-1.21.44-.87.91-1.72,1.36-2.58s1-1.84,1.55-2.72h0l-.45,1.2c-.55,1.48-1.35,2.84-1.93,4.29Zm-2,1.84-.95.89c.62-1.22,1.2-2.44,1.88-3.62,0,.23,0,.46,0,.69C340.35,265.12,340,265.8,339.77,266.49Zm-2.24-.65c.24-.41.46-.82.69-1.23l.3-.48.35-.32c-.11.22-.23.44-.35.66a18.92,18.92,0,0,0-1,2Zm0-.44v-.34l.29-.27C337.72,265,337.62,265.2,337.53,265.4Zm0,1.61c.4-.83.81-1.64,1.26-2.44.3-.52.64-1,.95-1.57l.9-.83c-.4.6-.78,1.2-1.14,1.82s-.81,1.57-1.2,2.36c-.26.56-.47,1.19-.77,1.75Zm4.19-5.86.3-.27c-.37.6-.72,1.22-1.07,1.83,0-.12,0-.24,0-.36C341.21,262,341.47,261.56,341.72,261.15Zm1-9.61a6.64,6.64,0,0,0,.86-.82,4.26,4.26,0,0,1-.06.5l-.06.07a5,5,0,0,1-.47.58Q342.9,251.69,342.76,251.54Zm-.95-.82c.53-.48,1-1.06,1.48-1.58l.09-.1a3.26,3.26,0,0,1,.15.44l-.12.12c-.22.21-.41.46-.61.68s-.36.54-.56.76A4.35,4.35,0,0,0,341.81,250.72Zm-.63-.34c.23-.19.4-.43.62-.64s.72-.71,1.05-1.07l.21-.23a.5.5,0,0,0,.08.12c0,.07.07.15.11.22l-.17.19c-.48.55-.95,1.1-1.39,1.68A4.11,4.11,0,0,0,341.18,250.38Zm-.7-.25a2.68,2.68,0,0,0,.28-.3,16.7,16.7,0,0,1,1.18-1.2l.7-.73a3.76,3.76,0,0,1,.25.31l-.42.46c-.28.29-.55.6-.81.91s-.38.52-.61.74A3.47,3.47,0,0,0,340.48,250.13Zm-.69-.14a19.8,19.8,0,0,0,1.36-1.53c.31-.34.68-.68,1-1l.29.26-.14.16c-.39.4-.75.82-1.14,1.23s-.56.7-.87,1A4.37,4.37,0,0,0,339.79,250Zm-.63,0a34.74,34.74,0,0,0,2.55-2.85l.13.08c-.83.87-1.55,1.86-2.28,2.79Zm-.56,0a15.34,15.34,0,0,0,1.57-1.88l1.08-1.25.09,0c-.2.26-.39.52-.59.77-.6.76-1.18,1.56-1.81,2.3ZM338,250a14.39,14.39,0,0,0,1.66-2.11c.34-.44.74-.86,1.12-1.3l.15.06-.75,1c-.62.76-1.19,1.59-1.84,2.33Zm-.87.21c.62-.76,1.18-1.57,1.79-2.33.38-.49.83-1,1.25-1.45l.26.05-.78,1a30,30,0,0,1-2,2.63Zm-1,.35c.24-.34.75-1,.82-1.09l1.17-1.7c.34-.49.7-1,1.06-1.45a4,4,0,0,1,.49,0,34,34,0,0,0-2.86,3.94A7.23,7.23,0,0,0,336.15,250.6Zm-.76.37c.69-1,1.34-2,2-3,.37-.54.79-1.07,1.19-1.61h.16c-.21.34-.42.67-.64,1-.75,1.08-1.38,2.26-2.12,3.34Zm8.06.76c-.05.17-.1.34-.16.5l-.16-.23A2,2,0,0,0,343.45,251.73ZM341,263.28c.71-1.17,1.54-2.31,2.23-3.5l.15-.14c-.29.54-.6,1.09-.91,1.63-.49.83-1,1.7-1.45,2.59C341,263.67,341,263.47,341,263.28ZM333,252.59c.85-1.18,1.57-2.48,2.37-3.68.5-.74,1.1-1.47,1.65-2.22l.31-.09a38.78,38.78,0,0,0-3.47,5.35Zm-1.3,1c1.41-2.1,2.74-4.26,4.11-6.39l.61-.27c-.5.7-1,1.4-1.48,2.11-.84,1.27-1.64,2.58-2.39,3.91Zm-1.17.86c.32-.41.56-.86.84-1.29l1.61-2.44c.7-1,1.48-2.07,2.15-3.15l.21-.11c-.43.72-.89,1.43-1.33,2.15-.88,1.42-1.78,2.83-2.67,4.24Zm-1.81,1.34-.55.41c.17-.26.32-.55.45-.71.28-.41.64-.81.91-1.25v.36a10,10,0,0,0-.81,1.19Zm-2.41,1.79a14.3,14.3,0,0,1,1.61-3c.53-.88,1-1.8,1.5-2.7,0,.25,0,.5,0,.75-1,1.51-1.79,3.13-2.78,4.62Zm-.07.05v-1c.48-.88,1-1.74,1.47-2.61.38-.65.84-1.28,1.23-1.93l.09-.06c-.54.91-1,1.89-1.52,2.8-.42.72-1.41,2-1.26,2.8Zm0-2.78h0a7.29,7.29,0,0,0,.46-.81c.1-.19.24-.36.34-.56l.21-.15-.18.33c-.29.53-.58,1.05-.84,1.58Zm0-.26v-.5l.41-.31a.41.41,0,0,1-.05.09C326.5,254.08,326.4,254.32,326.27,254.56Zm0,.95c.54-.87,1.06-1.75,1.59-2.63l.4-.3a35.76,35.76,0,0,0-2,3.65Zm5.18-5.29c-.18.33-.35.69-.54,1-.42.69-.72,1.47-1.13,2.16,0-.22,0-.44,0-.66a2.52,2.52,0,0,0,.13-.33.08.08,0,0,0,0-.08c.17-.3.41-.59.57-.85l.45-.82Zm-1.27,1.15c-.11.2-.29.44-.44.7,0-.19,0-.39,0-.58l.62-.46Zm-1.71,3.48a15.41,15.41,0,0,0,1-1.65l0,.56a18.77,18.77,0,0,0-1.22,1.74,6.58,6.58,0,0,0-.68,1.08l-.48.35C327.64,256.26,328,255.51,328.47,254.85Zm1.33-1.11v0a.1.1,0,0,0,0-.09,19,19,0,0,0,1.1-1.84c.41-.67.81-1.35,1.18-2l.7-.52c-.46.78-.92,1.57-1.4,2.35a12.51,12.51,0,0,0-1.56,2.62C329.81,254.05,329.8,253.89,329.8,253.74Zm-2.2-4c.51.41,1,.8,1.58,1.18.15.1-.07.4-.22.3-.54-.37-1.07-.77-1.58-1.18C327.23,249.91,327.45,249.61,327.6,249.73Zm-1.7,7.79-1-.88-.9-.74.08-3.47c.63.52,1.25,1,1.87,1.56Zm-.23-4.68a.76.76,0,0,1-.59-.81.42.42,0,0,1,.55-.41c.2,0,0,.37-.15.33s.07.43.15.47a1,1,0,0,0,.53.13c.55-.05.24-.74.33-1.05a1.06,1.06,0,0,1,.92-.84c.41,0,.83.19.77.65a.7.7,0,0,1-.84.5c-.2,0,0-.37.15-.33.38-.3.37-.46,0-.49a.72.72,0,0,0-.46.16.78.78,0,0,0-.21.72,1,1,0,0,1-.06.68A.88.88,0,0,1,325.67,252.84Zm3.52,2.6.05-.08c.09-.13.2-.25.3-.38v.2Zm.65-.89,0,0a32.56,32.56,0,0,1,2.09-3.37,24.86,24.86,0,0,0,1.52-2.43l1-.71.11-.07c-.57.87-1.18,1.73-1.75,2.59-.41.62-.8,1.26-1.2,1.89a16.78,16.78,0,0,1-1.46,2.32l-.29.21C329.85,254.81,329.84,254.68,329.84,254.55Zm4.49-2.92-.13.09c.73-1.08,1.43-2.17,2.18-3.23.49-.68,1.05-1.34,1.57-2a.86.86,0,0,1,.17,0c-.38.55-.74,1.12-1.11,1.68a25.06,25.06,0,0,0-1.87,3A9,9,0,0,0,334.33,251.63Zm8-.49a1,1,0,0,0,.13-.15,9.37,9.37,0,0,1,.81-.86l.3-.29a4.38,4.38,0,0,1,0,.51c-.32.37-.64.74-1,1.08Zm-4.61,7.94c.85.8,1.81,1.47,2.72,2.19.09.07,0,.2,0,.27a.12.12,0,0,0-.21,0h0c-.86-.68-1.76-1.32-2.58-2.06l0,0-.09-.09C337.4,259.24,337.61,259,337.75,259.08Zm-.59,9.5q-1.67-1.54-3.23-3.08V262c1.06,1,2.14,2.06,3.23,3.07Zm-.45-5.31c-.12.07-.22,0-.2-.15.12-.8.47-1.55.54-2.35-.62.3-1.06.88-1.66,1.22-.22.12-.26-.2-.09-.3.69-.39,1.16-1.05,1.92-1.34a.13.13,0,0,1,.16.12,13.14,13.14,0,0,1-.5,2.32,16.37,16.37,0,0,0,1.68-1.44c.17-.17.31.1.16.24A14.67,14.67,0,0,1,336.71,263.27Zm.82,5.1a5.31,5.31,0,0,0,.58-1c.45-.88.88-1.76,1.35-2.63.38-.7.82-1.37,1.27-2,0,.17,0,.33,0,.49-.81,1.51-1.56,3.05-2.3,4.61l-.88.82Zm2.57-2.18c.18-.41.38-.82.59-1.22,0,.22,0,.44,0,.66Zm.9-1.81c.54-1,1.13-2,1.7-3,.47-.78.91-1.58,1.36-2.37l.67-.63c-.41.69-.82,1.38-1.19,2.1-.44.87-.9,1.72-1.33,2.59-.3.63-.54,1.32-.83,1.95l-.39.36C341,265,341,264.71,341,264.38Zm5.21-3.95c.31-1.06.64-2.13,1-3.18q.32-1,.6-1.92c.11-.35.23-.83.38-1.24q0,.42-.06.87v0c0,.17,0,.34,0,.51a.08.08,0,0,0,0,0c-.16.59-.32,1.18-.5,1.76a8.56,8.56,0,0,0-.45,1.55A17.08,17.08,0,0,1,346.21,260.43Zm1.47-3c-.07.19-.14.39-.22.59C347.53,257.86,347.6,257.66,347.68,257.47Z"/><path class="cls-11" d="M509.13,297.72a51.86,51.86,0,1,1-51.85-51.85A51.85,51.85,0,0,1,509.13,297.72Z"/><path class="cls-12" d="M488.8,271.28a1.53,1.53,0,0,0-1.6,1.47c0,.19,0,.37,0,.56a2.12,2.12,0,0,0-.11-.21l-5.8-9a.81.81,0,0,0-.12-.14,11.79,11.79,0,0,1,2,0,1.54,1.54,0,1,0,.21-3.07c-12.73-.86-14.11,11.24-15.71,25.23,0,.27-.06.55-.09.81-4.6.46-9.9.61-15.75.68-2.7,0-5.49.07-8.21.15-7.85.25-13.85,2.71-17.83,7.29-6.11,7-5.16,16.44-5.12,16.83a1.54,1.54,0,0,0,3.06-.33c0-.08-.86-8.45,4.38-14.48.17-.2.36-.4.55-.59a1.12,1.12,0,0,0,0,1.22l16.28,27a1.14,1.14,0,0,0,1.11.55,1.2,1.2,0,0,0,.47-.16,1.14,1.14,0,0,0,.39-1.58l-16.28-27a1.15,1.15,0,0,0-1.58-.39l0,0c3.41-3.32,8.35-5.1,14.73-5.31,2.68-.08,5.46-.12,8.15-.15l1.27,0a1.07,1.07,0,0,0-.6.17,1.15,1.15,0,0,0-.38,1.59l9.49,15.46a1.16,1.16,0,0,0,2-1.21l-9.5-15.46a1.15,1.15,0,0,0-.92-.55c4.76-.06,9.54-.14,14-.55-.38,3.14-.83,6.39-1.46,9.64a.48.48,0,0,0-.08-.16l-4.82-7.86a1.16,1.16,0,0,0-2,1.21l4.83,7.85a1.16,1.16,0,0,0,1.11.55,1.07,1.07,0,0,0,.47-.17.7.7,0,0,0,.19-.15,63,63,0,0,1-1.94,7.35A25.51,25.51,0,0,1,453,322.22a1.14,1.14,0,0,0-.13-.86l-17-28.1a1.15,1.15,0,1,0-2,1.19l17,28.1a1.09,1.09,0,0,0,.72.51,34.13,34.13,0,0,1-17.77,4,1.53,1.53,0,1,0-.24,3.06,33.34,33.34,0,0,0,5.59-.2c7.88-.86,21.88-4.67,27.17-20.56a99.65,99.65,0,0,0,3.89-19.58c11-1.47,19.51-5.48,20-16.92A1.52,1.52,0,0,0,488.8,271.28ZM470.67,286.5c.73-6.4,1.42-11.58,2.71-15.37L481,282.89a1.12,1.12,0,0,0,.39.36,21.47,21.47,0,0,1-6,2.4,1.16,1.16,0,0,0-.1-1l-1.91-3.12a1.15,1.15,0,0,0-1.58-.39,1.16,1.16,0,0,0-.39,1.59l1.91,3.12a1.12,1.12,0,0,0,.17.2c-.9.19-1.85.35-2.84.5A.28.28,0,0,0,470.67,286.5Zm15.17-8-.09-.18-7.66-11.83a1.15,1.15,0,0,0-1.94,1.25l7.66,11.83a1.17,1.17,0,0,0,1.07.52,11.33,11.33,0,0,1-1.8,1.93,1.14,1.14,0,0,0-.16-.38l-7.65-11.83a1.16,1.16,0,0,0-1.16-.51,8.35,8.35,0,0,1,5.11-4.94,1.17,1.17,0,0,0,.11,1l5.79,9a1.16,1.16,0,0,0,1.1.52,1.08,1.08,0,0,0,.5-.18,1,1,0,0,0,.34-.35A13.06,13.06,0,0,1,485.84,278.5Z"/><path class="cls-12" d="M434,326.6a1.1,1.1,0,0,0,.46-.16,1.16,1.16,0,0,0,.41-1.58l-9.1-15.26a1.14,1.14,0,0,0-1.58-.4,1.16,1.16,0,0,0-.4,1.58l9.1,15.26A1.17,1.17,0,0,0,434,326.6Z"/><path class="cls-12" d="M440.13,326.57a1.1,1.1,0,0,0,.46-.16,1.15,1.15,0,0,0,.4-1.58l-13.41-22.3a1.15,1.15,0,1,0-2,1.18L439,326A1.17,1.17,0,0,0,440.13,326.57Z"/><path class="cls-12" d="M439.71,291.43a1.16,1.16,0,0,0-.37,1.59l15.73,25.27a1.16,1.16,0,0,0,1.11.54,1.11,1.11,0,0,0,.48-.17,1.15,1.15,0,0,0,.37-1.59L441.3,291.8A1.15,1.15,0,0,0,439.71,291.43Z"/><path class="cls-12" d="M459.61,314.3a1,1,0,0,0,.47-.16,1.13,1.13,0,0,0,.38-1.58L447.8,292a1.15,1.15,0,0,0-1.58-.38,1.17,1.17,0,0,0-.38,1.59l12.66,20.6A1.13,1.13,0,0,0,459.61,314.3Z"/><path class="cls-12" d="M476.74,283.88a1.16,1.16,0,0,0,1.09.52,1.12,1.12,0,0,0,.5-.18,1.15,1.15,0,0,0,.35-1.59L474.42,276a1.15,1.15,0,1,0-1.94,1.25Z"/><path class="cls-13" d="M422.21,253.31a34.28,34.28,0,1,1-6-48.11A34.27,34.27,0,0,1,422.21,253.31Z"/><path class="cls-6" d="M407,221.07V209.55a1.69,1.69,0,0,0-.09-.56H407a.66.66,0,0,0,.67-.63.65.65,0,0,0-.67-.63h-8.39a.63.63,0,1,0,0,1.26h.27a1.69,1.69,0,0,0-.09.56V221.2a16.67,16.67,0,0,0-10.23,7.57,5.43,5.43,0,0,1,.75.24,15.88,15.88,0,0,1,9.38-7,4.75,4.75,0,0,1,.57-.18v-1.34a.11.11,0,0,1,0-.06V209.5a1.7,1.7,0,0,1,.07-.51h7a2.09,2.09,0,0,1,.07.51s.07,11.84,0,12.11c.3,0,.42.17.75.24a15.34,15.34,0,0,1,11.93,14.66c0,8.38-7.16,15.16-16,15.16a16.49,16.49,0,0,1-10-3.37c-.17.2-.36.4-.54.58a17.18,17.18,0,0,0,10.58,3.59c9.27,0,16.79-7.12,16.79-15.91C419.92,229,414.38,222.71,407,221.07Z"/><path class="cls-6" d="M418.47,236.18H395.71a12.19,12.19,0,0,1-.8,9.56,22.84,22.84,0,0,1-1.37,2,15.78,15.78,0,0,0,9.59,3.21c8.47,0,15.35-6.51,15.35-14.54C418.48,236.34,418.47,236.26,418.47,236.18ZM397,245.87c-.39,0-.19-.62.13-.62S397.3,245.87,397,245.87Zm2.78,2.58-.14.1a.34.34,0,0,1-.3.21.22.22,0,0,1-.21-.3.91.91,0,0,1,.35-.45C399.8,247.74,400.06,248.21,399.76,248.45Zm0-7c-.39,0-.19-.62.13-.62S400.09,241.41,399.77,241.41Zm4.46,1.33c-.39,0-.19-.62.13-.62S404.55,242.74,404.23,242.74Zm4.07,4a.6.6,0,0,1-.87,0,.82.82,0,0,1-.08-.8c.16-.44.59-.7.89-.48C408.75,245.54,408.64,246.46,408.3,246.77Zm2.18-5.87c-.06.18-.26.44-.43.32a.47.47,0,0,1-.37,0c-.16-.06-.17-.23-.12-.37a1,1,0,0,1,.25-.41c.06-.15.2-.28.36-.21a2.26,2.26,0,0,0,.22.11c.15,0,.18.16.14.29A.31.31,0,0,1,410.48,240.9Zm.91,3.38c-.26-.1-.07-.6.22-.6a.31.31,0,0,1,.33.34C412,244.32,411.48,244.56,411.39,244.28Zm3.54-3.54c-.39,0-.19-.62.13-.62S415.26,240.74,414.93,240.74Z"/><path class="cls-6" d="M385.71,228.06v-8.87a1.21,1.21,0,0,0-.07-.43h.07a.5.5,0,0,0,.51-.49.49.49,0,0,0-.51-.48h-6.46a.49.49,0,0,0-.51.48.5.5,0,0,0,.51.49h.2a1.49,1.49,0,0,0-.06.43v9A12.39,12.39,0,0,0,369.84,240c0,6.77,5.79,12.26,12.93,12.26s12.92-5.49,12.92-12.26A12.41,12.41,0,0,0,385.71,228.06Zm-2.94,23.57c-6.81,0-12.33-5.23-12.33-11.68a11.79,11.79,0,0,1,8.87-11.2,3.22,3.22,0,0,1,.44-.14v-1a.07.07,0,0,1,0-.05v-8.37a1.75,1.75,0,0,1,.05-.4h5.43a1.75,1.75,0,0,1,.05.4s0,9.11,0,9.32c.23,0,.33.13.58.19A11.79,11.79,0,0,1,395.09,240C395.09,246.4,389.57,251.63,382.77,251.63Z"/><path class="cls-6" d="M380.1,229.34s-6.85,2.68-8,9.21h2.94S373.67,234.91,380.1,229.34Z"/><path class="cls-6" d="M390.63,229.34s1.62-5.27,9.44-6.89c0,0-5.77,6-5.49,10.06Z"/><path class="cls-6" d="M394.58,239.7H371v.19c0,6.18,5.29,11.2,11.82,11.2s11.81-5,11.81-11.2Zm-21.29,3.18-.54-1.93h2.47l.89,1.93Z"/><path class="cls-14" d="M457.28,133.12a47.53,47.53,0,1,1-47.53-47.53A47.53,47.53,0,0,1,457.28,133.12Z"/><path class="cls-12" d="M436.92,129.31c4.5-6,5.81-11.25,3.67-14.79-1.6-2.66-5-4.07-9.84-4.07a37.17,37.17,0,0,0-8.86,1.23c-2.71-8.89-7.09-14.57-12.14-14.57-4.8,0-9,5.16-11.74,13.34a32.36,32.36,0,0,0-9.18-1.57c-3.95,0-6.87,1.17-8.45,3.4-2.39,3.36-1.48,8.7,2.56,15a48.72,48.72,0,0,0,3.66,5,49.34,49.34,0,0,0-4,4.67c-4.5,6-5.8,11.25-3.67,14.79,1.61,2.67,5,4.08,9.85,4.08h0a37.35,37.35,0,0,0,8.86-1.24c2.7,8.9,7.09,14.58,12.13,14.58,4.81,0,9-5.16,11.75-13.35a32.29,32.29,0,0,0,9.18,1.58c3.94,0,6.86-1.18,8.44-3.4,3.14-4.42.48-12-6.2-20A48.87,48.87,0,0,0,436.92,129.31Zm-6.17-17.47c3,0,6.95.59,8.65,3.41,1.79,3,.48,7.79-3.59,13.23a48.19,48.19,0,0,1-3.8,4.42,73,73,0,0,0-7.57-7.37A69.31,69.31,0,0,0,422.28,113,35.31,35.31,0,0,1,430.75,111.84Zm-14,32.94a82.81,82.81,0,0,1-7.61,4.08,84.7,84.7,0,0,1-7.3-4.64c-1.9-1.35-3.73-2.76-5.45-4.2-.19-2.24-.29-4.55-.29-6.9,0-2.58.12-5.09.34-7.52,2-1.44,4.07-2.83,6.25-4.15,2.52-1.52,5.08-2.88,7.61-4.08a83.19,83.19,0,0,1,7.3,4.64q2.88,2,5.46,4.22c.18,2.23.28,4.54.28,6.89,0,2.57-.12,5.08-.34,7.51C421.05,142.07,419,143.46,416.78,144.78Zm6.06-2.29A66.42,66.42,0,0,1,420.52,154a64.43,64.43,0,0,1-9.85-4.33c2.28-1.11,4.57-2.34,6.83-3.71C419.35,144.86,421.13,143.69,422.84,142.49Zm-15.22,7.08a65.2,65.2,0,0,1-9,3.27,67.71,67.71,0,0,1-2-10.86c1.43,1.16,2.91,2.29,4.46,3.38C403.22,146.89,405.42,148.29,407.62,149.57Zm-12.71-10.84a68,68,0,0,1-6.41-6.41,70.07,70.07,0,0,1,6.47-5.6c-.15,2.07-.23,4.21-.23,6.4C394.74,135,394.8,136.9,394.91,138.73Zm1.76-15A65.46,65.46,0,0,1,399,112.22a64.56,64.56,0,0,1,9.85,4.33c-2.27,1.11-4.57,2.35-6.83,3.71C400.15,121.37,398.37,122.54,396.67,123.75Zm15.22-7.09a67.81,67.81,0,0,1,9-3.27,68.66,68.66,0,0,1,2,10.85q-2.13-1.71-4.46-3.37C416.28,119.34,414.08,117.94,411.89,116.66Zm12.7,10.87a70.13,70.13,0,0,1,6.39,6.41,67.9,67.9,0,0,1-6.45,5.57q.23-3.1.23-6.39C424.76,131.21,424.71,129.35,424.59,127.53Zm-14.84-29c4.3,0,8.2,5.37,10.72,13.56a69.14,69.14,0,0,0-10.07,3.75,67.71,67.71,0,0,0-11-4.91C401.93,103.37,405.66,98.5,409.75,98.5Zm-28.23,14.58c1.3-1.83,3.83-2.81,7.31-2.81a30.64,30.64,0,0,1,8.75,1.51,67.84,67.84,0,0,0-2.45,13.08,72.73,72.73,0,0,0-7.54,6.4,49.39,49.39,0,0,1-3.48-4.71C380.46,120.82,379.51,115.91,381.52,113.08Zm7.24,41.31h0c-3,0-7-.59-8.66-3.4-1.79-3-.48-7.8,3.6-13.23a47.21,47.21,0,0,1,3.81-4.44,73.55,73.55,0,0,0,7.55,7.37,69.67,69.67,0,0,0,2.17,12.53A35.84,35.84,0,0,1,388.76,154.39Zm21,13.35c-4.29,0-8.2-5.38-10.72-13.57a67.69,67.69,0,0,0,10.08-3.75,67.71,67.71,0,0,0,11,4.92C417.58,162.87,413.84,167.74,409.75,167.74ZM438,153.15c-1.3,1.84-3.83,2.81-7.3,2.81a31,31,0,0,1-8.76-1.5,67.92,67.92,0,0,0,2.46-13.09,70.78,70.78,0,0,0,7.5-6.37C438,142.38,440.66,149.38,438,153.15Z"/><path class="cls-12" d="M411,136.42A4.47,4.47,0,1,1,406.5,132,4.47,4.47,0,0,1,411,136.42Z"/><path class="cls-12" d="M408.78,124.18a4.47,4.47,0,0,0-4.47,4.47,4.42,4.42,0,0,0,1.09,2.92,4.14,4.14,0,0,1,2.93.48,4.89,4.89,0,0,1,.82-1.4c.88-1.28,2.57-1.77,4.09-2,0,0,0,0,0,0A4.47,4.47,0,0,0,408.78,124.18Z"/><path class="cls-12" d="M413.25,129.12a4.46,4.46,0,0,0-4.22,3c1.47.51,2.17,2.18,2.35,3.84a3.91,3.91,0,0,1,0,1.63,4.32,4.32,0,0,0,1.84.42,4.47,4.47,0,0,0,0-8.94Z"/><path class="cls-13" d="M243.56,300.3a46.48,46.48,0,1,1-46.48-46.48A46.47,46.47,0,0,1,243.56,300.3Z"/><path class="cls-6" d="M197.08,272a28.16,28.16,0,0,0-24.54,42,.22.22,0,0,1,0,.08.35.35,0,0,0,.26.36A28.16,28.16,0,1,0,197.08,272Zm16,49.57c.06-.52.12-1,.2-1.55a1.74,1.74,0,0,0-.64-1.85c-1.13-.62-2.45.79-3.18,1.48a4.94,4.94,0,0,0-1.39,1.56,1.82,1.82,0,0,0,.75,2.17,3.28,3.28,0,0,0,.66.41,27.12,27.12,0,0,1-32-5.36c.26-.25.32-.75-.1-.75a.51.51,0,0,0-.39.22,26.66,26.66,0,0,1-3.43-4.66c.42-1.42,2.79-1,3.12-2.6.49-2.39-4-6,1.53-5.08,1.52.24,2.95-1.29,3.82-2.41,1.18-1.5-1.51-2.38,3.13-2.69,1.14-.08,2.44.36,3.55.15a2.17,2.17,0,0,0,1.92-2.35c0-2.73,1.47-4.7,1.56-7.32.06-1.81-3.13-2.75-4.28-3.17-2.77-1-10.25-4.38-8.8-8.22a.28.28,0,0,0,0-.27,27,27,0,0,1,6.86-4.42s.08.06.16,0c1.72-.76,2.77,5.55,4.1,6.15,3.18,1.41,4.74,1.19,6.64-1.71,2.52-3.83,7.44,1.65,10.53,2.2,3.41.6,1.91-3.94,3.84-4.6a.42.42,0,0,0,.27-.32,27.44,27.44,0,0,1,7.73,7.3.17.17,0,0,0-.05.13c.41,3.27-1.8,4.48-4.06,6.19-.7.54-.62,1.26-.58,2,.08,1.42,1.73,2.5,2.14,3.72.87,2.56,1.72,4.93-.74,6.92-1.83,1.47-2.56,3.25-1.32,5.42a17,17,0,0,1,1.89,4.33c.43,1.54,1.9.85,3,2a.42.42,0,0,0,.16.11A27.22,27.22,0,0,1,213.12,321.59Z"/><path class="cls-6" d="M182.8,316.5a.49.49,0,0,0-.52-.2.79.79,0,0,0-.61.48h0a.53.53,0,0,0-.13.2.62.62,0,0,0,.69.85A.86.86,0,0,0,182.8,316.5Z"/><path class="cls-6" d="M177.29,315.65c-.55,0-.86,1-.22,1S177.94,315.65,177.29,315.65Z"/><path class="cls-6" d="M179.62,311.27a.64.64,0,0,0-.85.61,1.09,1.09,0,0,0,0,.95c.25.45,1,.25,1.18-.1a.6.6,0,0,0,.09-.45A.79.79,0,0,0,179.62,311.27Z"/><path class="cls-6" d="M181.77,306.58c-.25,0-.38.43-.1.43S182,306.58,181.77,306.58Z"/><path class="cls-6" d="M214.08,301.1h0c-.06.13,0,.37.13.41h0a.41.41,0,0,0,.47-.23.09.09,0,0,1,0-.06C215,300.73,214.21,300.59,214.08,301.1Z"/><path class="cls-6" d="M214.33,295.85a.88.88,0,0,0-.85.69.6.6,0,0,0,.51.78.89.89,0,0,0,.86-.69A.6.6,0,0,0,214.33,295.85Z"/><path class="cls-6" d="M210.74,291.13c-.5,0-.79.9-.21.9S211.32,291.13,210.74,291.13Z"/><path class="cls-6" d="M212.72,288c-.49,0-.78.9-.2.9S213.3,288,212.72,288Z"/><circle class="cls-15" cx="264.08" cy="242.89" r="40.13" transform="translate(-3.01 3.32) rotate(-0.72)"/><path class="cls-6" d="M279.55,261.66c-2.71-3.36-5.72-6.56-8.2-10.1a18.78,18.78,0,0,1-2.78-5.77c-.25-.92-.78-4.31-.87-5.07.07-1.42,0-2.86,0-4.27,0-.58,0-1.16,0-1.73a2.18,2.18,0,0,0,.22-.21.72.72,0,0,0,.18-.7,3.74,3.74,0,0,0-1-.73v0h0a6,6,0,0,0-2.86-.52,12.14,12.14,0,0,0-2.87.26c-.28.12-.57.24-.84.38a.93.93,0,0,0-.43.62,1,1,0,0,0,.47,1.09c0,.51,0,1,0,1.52,0,1.41-.12,2.85,0,4.27-.09.76-.62,4.15-.87,5.07a18.56,18.56,0,0,1-2.78,5.77c-2.47,3.54-5.49,6.74-8.21,10.1-1.81,2.24-4,5.41-3.45,8.46.81,4.06,6.48,3.76,9.48,3.59h0c2.61,0,5.2,0,7.81,0s5.29.11,7.94.15c1.34,0,2.66-.06,4-.1h.14c3.11.14,7.74,0,8.47-3.64C283.62,267.07,281.37,263.9,279.55,261.66Zm-18.05-28c.31-.07.63-.13.94-.17a14.55,14.55,0,0,1,1.75-.06,11.12,11.12,0,0,1,1.41.09c-.37,0,.88.2,1.32.43a5.3,5.3,0,0,1-2.49.37,19.86,19.86,0,0,1-3.62-.26C260.88,234,260.92,233.85,261.5,233.71Zm18.12,38.55a14,14,0,0,1-4.42.68c-1.37,0-2.73.13-4.09.11l-7.43-.11c-3.13-.05-6.29.09-9.43.11-1.88-.21-4-.07-5.71-.79a4.13,4.13,0,0,1-2.57-5c.81-3.68,4.23-6.46,6.58-9.19,2.48-2.89,5.32-5.66,6.77-9.21a41.64,41.64,0,0,0,1.82-7.53,44.24,44.24,0,0,0,0-5c0-.38,0-.76,0-1.14a10.78,10.78,0,0,0,2,.17,10.53,10.53,0,0,0,3.88-.29c0,.42,0,.84,0,1.26a44.24,44.24,0,0,0,0,5,41.64,41.64,0,0,0,1.82,7.53c1.45,3.55,4.29,6.32,6.77,9.21,2.35,2.73,5.77,5.51,6.58,9.19A4.13,4.13,0,0,1,279.62,272.26Z"/><path class="cls-6" d="M281.85,268.14s.09-2.06-2.87-5.38-8.88-9.51-9.78-10.95a50.77,50.77,0,0,0-10.85.27,53.49,53.49,0,0,1-7.9,9.24c-4.07,3.5-4.73,7.72-3,9.42,0,0,1.61,1.26,5.83,1.44h21.44s7.14-.38,7.18-3.77S281.85,268.14,281.85,268.14ZM250.78,270c-.75,0-.37-1.18.24-1.18S251.39,270,250.78,270Zm5.59-4.6a1,1,0,0,1-1.46.29.63.63,0,0,1-.19-.69.65.65,0,0,1,.58-.4.47.47,0,0,1,.65-.24A.8.8,0,0,1,256.37,265.39Zm1.08-9.25a.77.77,0,0,1-.53.72.41.41,0,0,1-.55-.4v-.09a.8.8,0,0,1,.52-.73.43.43,0,0,1,.56.41Zm4.23,10.14c-.2.25-.63.52-.93.25l-.12-.13c-.27,0-.57-.08-.64-.37a.93.93,0,0,1,.42-.94c.31-.23,1.43-.9,1.55-.16A1.79,1.79,0,0,1,261.68,266.28Zm.4-8.86c-.75,0-.37-1.17.25-1.17S262.69,257.42,262.08,257.42Zm7,3c-.23.27-.58.39-.79.08a.73.73,0,0,1-.08-.7.67.67,0,0,1,1-.33C269.56,259.68,269.39,260.17,269.08,260.41Zm-.27-6.22c-.74,0-.37-1.17.25-1.17S269.42,254.19,268.81,254.19Zm2.33,10.86c-.74,0-.36-1.17.25-1.17S271.75,265.05,271.14,265.05Zm6.44-1.53c.75,0,.36,1.17-.25,1.17S277,263.52,277.58,263.52Zm.58,6.13a.84.84,0,0,1-.83.69c-.68,0-.42-.95.1-1.13a.54.54,0,0,1,.33-.13A.44.44,0,0,1,278.16,269.65Z"/><path class="cls-6" d="M274.49,221.7a2.94,2.94,0,0,0-.32-3.85,2.82,2.82,0,0,0-3.67-.39c-.2-1.28-1.27-1.46-2.31-1.09.21-1.9-1.45-4.37-3.37-4.36a4.85,4.85,0,0,0-2.92,1,1.62,1.62,0,0,0-1.3-1.09,1.7,1.7,0,0,0-1.77,1c-1.49-1.5-4.55.8-5.36,2.17a5,5,0,0,0-.6,3.91,2.82,2.82,0,0,0,.82,1.42,4.42,4.42,0,0,0-.75,1.24c-1.93.36-1.5,3.19-.07,4.28-1.37,1.42-.58,3.57,1.27,4.46a4.41,4.41,0,0,0,3.14-.05c1.24-.46,3.05-2.11,3.74-.23-.2,1.43.36,3.22,1.8,3.19.31,0,.65-.44.34-.7-.59-.48-1.11-.72-1.34-1.52a3.31,3.31,0,0,1,0-2.24c.08-.17-.12-.25-.24-.13a1.77,1.77,0,0,0-.32.47,1.36,1.36,0,0,0-1.89-.64,20,20,0,0,1-2.47,1,4.23,4.23,0,0,1-2.34-.07c-1.49-.48-2.1-2.38-.61-3.31.26-.17.34-.72,0-.83-.85-.28-1.95-2-1.18-2.68a1.36,1.36,0,0,0,.77,1.28c-.54-1.42.43-3.47,1.93-4.42a2.13,2.13,0,0,0-1.23.4c-1.06-.85-.7-3.24-.23-4.16.63-1.25,3.38-3.68,4.56-1.67.23.39.75,0,.75-.35.89-1.38,1.58-1.44,2.08-.22a3.06,3.06,0,0,0-.74,2.9,4.61,4.61,0,0,1,.68-1.65c.07-.1.17-.18.24-.27a3,3,0,0,1,3.36-1.38c1.38.35,2.86,2.57,2.17,4a.4.4,0,0,0,.61.5c.59-.71,1.28-.56,2.09.43a7.16,7.16,0,0,0-1.43,1.83.24.24,0,0,0,0,.23,6.82,6.82,0,0,1,2.79-2,3.36,3.36,0,0,1,.79-.16c2.3-.11,2.4,3.09,1,4.08a.51.51,0,0,0-.22.39,1.67,1.67,0,0,1,1.88.48l0,0a1,1,0,0,1,.32.41,2.61,2.61,0,0,1-.7,2.09,5.19,5.19,0,0,1-3.09,1.51,2.72,2.72,0,0,0,0-.57c-.06-.54-.31-1.33-1-1.26a.49.49,0,0,0-.38.39c-.06.36.12.52.25.83a1.73,1.73,0,0,1,.07,1.12c0,.14,0,.1-.17.18a1.81,1.81,0,0,1-.54.18,1.58,1.58,0,0,1-.38,0,4.12,4.12,0,0,0-.33-1.05c-.27-.59-.82-1.3-1.36-.95h0a2.69,2.69,0,0,1,.75,1.91c0,.16,0,.32,0,.48a2.31,2.31,0,0,1-.86,2.18,3.58,3.58,0,0,1-.64.37,2.74,2.74,0,0,1-1,.42,4.13,4.13,0,0,1-2.93-.41s0,0,0,.05a2.9,2.9,0,0,0,1.92,1.06.87.87,0,0,0,.08,1.14h0a.23.23,0,0,0,.34-.15c0-.23,0-.43.21-.6a1.5,1.5,0,0,0,.29-.34,3.87,3.87,0,0,0,3.2-1.79,3.79,3.79,0,0,0,.42-1.71l.14,0a1.8,1.8,0,0,0,1.47-.42,1.89,1.89,0,0,0,.19-.3,5.08,5.08,0,0,0,5-3.5A2,2,0,0,0,274.49,221.7Z"/><path class="cls-16" d="M361.75,397.68v82.83c0,12.77-.09,14.05,11.17,22.25,11.58,8.43,24.43,23.07,22.25,48.23s-17.4,48.27-55.25,49.5a52.31,52.31,0,0,1-5.82-.17C297.73,597,281,576,278.86,550.82s10.66-39.8,22.24-48.23c11.26-8.2,11.17-9.48,11.17-22.25V397.51Z"/><path class="cls-17" d="M361.75,397.68v82.83c0,12.77-.09,14.05,11.17,22.25,11.58,8.43,24.43,23.07,22.25,48.23s-17.4,48.27-55.25,49.5a52.31,52.31,0,0,1-5.82-.17C297.73,597,281,576,278.86,550.82s10.66-39.8,22.24-48.23c11.26-8.2,11.17-9.48,11.17-22.25V397.51Z"/><path class="cls-18" d="M287.56,519.19c-5.08,8-8.38,18.39-7.2,31.92,2.13,24.51,18.38,45,53.82,48.22a49.49,49.49,0,0,0,5.66.17c36.88-1.2,51.69-23.71,53.82-48.22,1.2-13.8-2.24-24.35-7.49-32.39C353.3,518.77,320.42,519.13,287.56,519.19Z"/><path class="cls-19" d="M287.56,519.19a.25.25,0,0,0,0,.07c2.11.2,42,3.88,96.24-.37C351.7,518.8,319.61,519.13,287.56,519.19Z"/><g class="cls-20"><path class="cls-21" d="M372.92,502.76c-11.26-8.2-11.17-9.48-11.17-22.25V397.68h-8.89V484.9c0,12.58,5.39,14.64,15.29,23a53.85,53.85,0,0,1,8,9.15c12.63,17.07,14.67,39.45,5,58-9.36,17.93-25.71,22.64-45,22.19a62,62,0,0,1-15.37-2.45c-18.3-5.25-30.65-17.43-35.92-35.48-5.2-17.77,2.08-39.77,16.22-51.68,9.9-8.35,16.33-10.13,16.33-22.71V397.52h-3.51v82.83c0,12.77.09,14.05-11.17,22.25-11.58,8.43-24.44,23.06-22.25,48.23s17.27,46.22,53.64,49.5a52.31,52.31,0,0,0,5.82.17c37.85-1.23,53.06-24.34,55.25-49.5S384.5,511.19,372.92,502.76Z"/></g><path class="cls-22" d="M313.31,499.57s-42.19,21.84-23.64,70.31C281.59,556.42,275,518.72,313.31,499.57Z"/><path class="cls-23" d="M392.85,532c-3.16-11.24-11.55-21.74-22-29-13.4-9.26-11.83-14.87-11.83-26.29V398.35l-4.05,0s0,62.27,0,74.94-.73,18.76,5.6,25.34c5.72,5.94,22.25,13.9,27.77,34.7C389.84,532.82,391.34,532.38,392.85,532Z"/><path class="cls-24" d="M389.14,536.73c.23,1.2.43,2.44.58,3.72,3.16,25.75-7.21,40-7.21,40,10.48-14.14,11.7-29.25,11.7-39a33.25,33.25,0,0,0-.64-6.44C392.11,535.64,390.63,536.21,389.14,536.73Z"/><path class="cls-6" d="M366.74,500.22s26.78,13.74,27.88,43c.88,24.26-15.27,53.26-50.1,56.14,23.81-3.12,47.26-18.11,47.92-55.34C392.31,523.53,374.68,506,366.74,500.22Z"/><path class="cls-25" d="M318,487.74s2.52,8.5,17.74,8.5,16.54-9.66,16.54-9.66a31.2,31.2,0,0,0,11.36,16.62c-8.86-2.39-16.68,3.08-27.9,3.08-10.32,0-21.95-6.17-29.48-1.73C313,499.26,317.71,493.2,318,487.74Z"/><rect class="cls-26" x="319.57" y="398.71" width="4.96" height="100.62"/><path class="cls-27" d="M288.44,542.48c-.73,8.81,2.09,14.39,2.09,14.39s0,.53,15.31,0a46.66,46.66,0,0,1-.92-8.58C299.36,546.55,294.62,545,288.44,542.48Z"/><path class="cls-28" d="M305.06,543.69c1.66-21.1,16.35-36.71,16.35-36.71l-8.18-2.9c-16,12.52-22.15,24.5-24.12,33.87Q297.06,540.88,305.06,543.69Z"/><path class="cls-29" d="M361.09,594.05c0,2.41-10.66,5.46-23.58,5.46s-23.23-3-23.23-5.46,10.48-4.36,23.4-4.36S361.09,591.64,361.09,594.05Z"/><path class="cls-30" d="M335.54,595.32c-37.23,0-53.25-32.21-53.25-32.21L280,559.25c6.63,24.43,29.53,41.06,56.77,41.06,28.19,0,51.74-17.82,57.4-43.65-1.74,1.36-2,4.87-5.2,9C384,573.58,372.76,595.32,335.54,595.32Z"/><g class="cls-31"><path class="cls-32" d="M307,499.24c8.3-7.14,6.58-10.9,6.58-23.22v-78.5h-1.32v82.83c0,12.77.09,14.05-11.17,22.25-10,7.27-20.91,19.16-22.33,38.43C281.27,517.73,298.35,505.87,307,499.24Z"/></g><path class="cls-33" d="M389.52,521.19a55.85,55.85,0,0,0-16.6-18.43c-11.26-8.2-11.17-9.48-11.17-22.25V397.68l-49.48-.17v1.37h43.4c5.66,0,4.43,1.72,4.43,5.41v54.65c0,28.31-2.71,34.22,11.57,44.07,8.43,6.71,14.22,11.16,17.78,18.14Z"/><path class="cls-34" d="M289.51,571.32s12,22.6,40,26C322.11,599.35,298.09,591.06,289.51,571.32Z"/><path class="cls-35" d="M345.11,597.08s17.44-1.84,29.37-11.63C369.28,592.18,355.51,597.38,345.11,597.08Z"/><path class="cls-17" d="M363.93,395.76a2.45,2.45,0,0,1-2.44,2.45h-50a2.45,2.45,0,0,1-2.45-2.45h0a2.45,2.45,0,0,1,2.45-2.44h50a2.44,2.44,0,0,1,2.44,2.44Z"/><path class="cls-36" d="M352.86,395.1c0,.65-7.34,1.19-16.38,1.19s-16.37-.54-16.37-1.19,7.33-1.2,16.37-1.2S352.86,394.44,352.86,395.1Z"/><path class="cls-37" d="M363.57,514.09s29.56,29.07,4.15,64.5c0,0,24.64-10.75,16.69-42.18C377,515.63,363.57,514.09,363.57,514.09Z"/><path class="cls-38" d="M204.17,273a42.94,42.94,0,0,1,35.56,18.83A43,43,0,1,0,162,324.13,43,43,0,0,1,204.17,273Z"/><path class="cls-39" d="M251.23,114.35a46.91,46.91,0,0,1,38.84,20.57,46.94,46.94,0,1,0-84.91,35.32,46.9,46.9,0,0,1,46.07-55.89Z"/><path class="cls-40" d="M269.83,220.86A36.84,36.84,0,0,1,300.36,237a36.9,36.9,0,1,0-66.75,27.77,36.89,36.89,0,0,1,36.22-43.94Z"/><path class="cls-41" d="M183.39,181.62A30.48,30.48,0,0,1,208.62,195a30.5,30.5,0,1,0-55.17,23,30.15,30.15,0,0,1-.56-5.82A30.49,30.49,0,0,1,183.39,181.62Z"/><path class="cls-42" d="M416.3,105.19a44.09,44.09,0,0,1,36.52,19.34A44.14,44.14,0,1,0,373,157.74a44.13,44.13,0,0,1,43.32-52.55Z"/><path class="cls-43" d="M400.83,214.27a31.38,31.38,0,0,1,26,13.77A31.41,31.41,0,1,0,370,251.68a31.4,31.4,0,0,1,30.84-37.41Z"/><path class="cls-44" d="M474.11,179.06a36.69,36.69,0,0,1,30.39,16.1A36.74,36.74,0,1,0,438,222.8a37.59,37.59,0,0,1-.67-7A36.74,36.74,0,0,1,474.11,179.06Z"/><path class="cls-45" d="M465.21,268.57a48.44,48.44,0,0,1,40.15,21.27,48.53,48.53,0,1,0-87.79,36.52,48.54,48.54,0,0,1,47.64-57.79Z"/><path class="cls-46" d="M335.41,172.17a32.36,32.36,0,0,1,26.81,14.21,32.4,32.4,0,1,0-58.62,24.37,32.38,32.38,0,0,1,31.81-38.58Z"/><path class="cls-47" d="M334.84,104.07a26.64,26.64,0,0,1,22.07,11.69,26.68,26.68,0,1,0-48.26,20.07,26.67,26.67,0,0,1,26.19-31.76Z"/><path class="cls-48" d="M339.72,245.42a16.66,16.66,0,0,1,13.78,7.3,16.65,16.65,0,1,0-30.12,12.53,16.63,16.63,0,0,1,16.34-19.83Z"/><path class="cls-7" d="M328,657.3A325.16,325.16,0,0,1,98.07,102.21,325.17,325.17,0,1,1,557.93,562.06,323,323,0,0,1,328,657.3Zm0-641.55c-174.45,0-316.38,141.93-316.38,316.39S153.55,648.52,328,648.52,644.39,506.59,644.39,332.14,502.46,15.75,328,15.75Z"/><path class="cls-7" d="M328,622.08A289.78,289.78,0,0,1,123.1,127.4,289.77,289.77,0,1,1,532.9,537.2,287.89,287.89,0,0,1,328,622.08Zm0-571.73c-155.46,0-281.95,126.49-281.95,282s126.49,282,282,282S610,487.77,610,332.3,483.47,50.35,328,50.35Z"/><text class="cls-49" transform="translate(37.24 807.6)">PS Lab</text></g></g></svg>