<?xml version="1.0" encoding="UTF-8"?>
<svg xmlns="http://www.w3.org/2000/svg" xmlns:xlink="http://www.w3.org/1999/xlink" width="576pt" height="122pt" viewBox="0 0 576 122" version="1.1">
<g id="surface8">
<path style="fill:none;stroke-width:1;stroke-linecap:square;stroke-linejoin:miter;stroke:rgb(0%,0%,0%);stroke-opacity:1;stroke-miterlimit:3.25;" d="M 77.5 114.773438 L 87.738281 114.773438 L 87.738281 78.828125 L 127.425781 78.828125 L 127.425781 82.75 L 140.230469 82.75 L 140.230469 42.414063 L 178.554688 42.414063 L 178.554688 45.617188 L 219.285156 45.617188 L 219.285156 16.039063 L 261.621094 16.039063 L 261.621094 58.667969 L 281.613281 58.667969 L 281.613281 32.777344 L 285.699219 32.777344 L 285.699219 60.890625 L 289.175781 60.890625 L 289.175781 36.699219 L 307.710938 36.699219 L 307.710938 75.042969 L 334.441406 75.042969 L 334.441406 29.21875 L 359.007813 29.21875 L 359.007813 45.582031 L 366.058594 45.582031 L 366.058594 34.800781 L 392.320313 34.800781 L 392.320313 69.144531 L 412.558594 69.144531 L 412.558594 32.375 L 424.027344 32.375 L 424.027344 68.582031 L 469.96875 68.582031 L 469.96875 34.058594 L 488.613281 34.058594 L 488.613281 60.308594 L 492.910156 60.308594 L 492.910156 34.0625 L 516.363281 34.0625 L 516.363281 79.402344 L 556.90625 79.402344 L 556.90625 34.121094 L 582.558594 34.121094 L 582.558594 79.59375 L 604.132813 79.59375 L 604.132813 63.519531 L 612.53125 63.519531 L 612.53125 78.390625 L 629.5 78.390625 " transform="matrix(1,0,0,1,-66,-5)"/>
</g>
</svg>
