<?xml version="1.0" encoding="UTF-8"?>
<svg xmlns="http://www.w3.org/2000/svg" xmlns:xlink="http://www.w3.org/1999/xlink" width="700pt" height="1029pt" viewBox="0 0 700 1029" version="1.1">
<g id="surface4">
<path style="fill:none;stroke-width:1;stroke-linecap:square;stroke-linejoin:miter;stroke:rgb(0%,0%,0%);stroke-opacity:1;stroke-miterlimit:3.25;" d="M 146.496094 163.964844 L 154.710938 163.964844 L 154.710938 127.960938 L 182.554688 127.960938 L 182.554688 146.230469 L 194.65625 146.230469 L 194.65625 126.390625 L 230.597656 126.390625 L 230.597656 155.296875 L 265.847656 155.296875 L 265.847656 133.015625 L 303.421875 133.015625 L 303.421875 142.609375 L 308.785156 142.609375 L 308.785156 109.808594 L 343.277344 109.808594 L 343.277344 118.207031 L 364.511719 118.207031 L 364.511719 89.617188 L 391.191406 89.617188 L 391.191406 118.8125 L 423.792969 118.8125 L 423.792969 112.457031 L 455.117188 112.457031 L 455.117188 118.199219 L 475.160156 118.199219 L 475.160156 87.601563 L 511.53125 87.601563 L 511.53125 103.28125 L 529.238281 103.28125 L 529.238281 66.574219 L 552.8125 66.574219 L 552.8125 89.851563 L 561.402344 89.851563 L 561.402344 74.09375 L 568.152344 74.09375 L 568.152344 101.789063 L 572.164063 101.789063 L 572.164063 81.996094 L 594.347656 81.996094 L 594.347656 96.59375 L 601.015625 96.59375 L 601.015625 61.359375 L 619.023438 61.359375 L 619.023438 80.285156 L 634.933594 80.285156 L 634.933594 59.675781 L 672.238281 59.675781 L 672.238281 88.589844 L 683.503906 88.589844 " transform="matrix(1,0,0,1,-66,-5)"/>
<path style="fill:none;stroke-width:1;stroke-linecap:square;stroke-linejoin:miter;stroke:rgb(0%,0%,0%);stroke-opacity:1;stroke-miterlimit:3.25;" d="M 166.335938 342.578125 L 192.503906 342.578125 L 192.503906 327.628906 L 215.515625 327.628906 L 215.515625 343.9375 L 220.304688 343.9375 L 220.304688 316.179688 L 228.785156 316.179688 L 228.785156 340.207031 L 248.027344 340.207031 L 248.027344 313.472656 L 269.988281 313.472656 L 269.988281 324.734375 L 288.546875 324.734375 L 288.546875 315.683594 L 313.699219 315.683594 L 313.699219 332.632813 L 326.992188 332.632813 L 326.992188 300.1875 L 349.980469 300.1875 L 349.980469 312.882813 L 378.945313 312.882813 L 378.945313 296.773438 L 395.820313 296.773438 L 395.820313 314.546875 L 423.613281 314.546875 L 423.613281 281.703125 L 431.484375 281.703125 L 431.484375 309.601563 L 441.574219 309.601563 L 441.574219 289.703125 L 473.015625 289.703125 L 473.015625 315.585938 L 500.753906 315.585938 L 500.753906 298.65625 L 531.0625 298.65625 L 531.0625 313.425781 L 563.265625 313.425781 L 563.265625 302.488281 L 595.523438 302.488281 L 595.523438 331.804688 L 610.339844 331.804688 L 610.339844 323.863281 L 622.296875 323.863281 L 622.296875 346.222656 L 635.824219 346.222656 L 635.824219 321.761719 L 652.109375 321.761719 L 652.109375 348.554688 L 663.664063 348.554688 " transform="matrix(1,0,0,1,-66,-5)"/>
<path style="fill:none;stroke-width:1;stroke-linecap:square;stroke-linejoin:miter;stroke:rgb(0%,0%,0%);stroke-opacity:1;stroke-miterlimit:3.25;" d="M 154.226563 547.488281 L 171.039063 547.488281 L 171.039063 536.695313 L 183.851563 536.695313 L 183.851563 561.882813 L 208.617188 561.882813 L 208.617188 539.050781 L 224.765625 539.050781 L 224.765625 555.683594 L 228.695313 555.683594 L 228.695313 518.476563 L 257.277344 518.476563 L 257.277344 561.015625 L 286.929688 561.015625 L 286.929688 518.4375 L 295.199219 518.4375 L 295.199219 556.59375 L 308.480469 556.59375 L 308.480469 525.992188 L 329.894531 525.992188 L 329.894531 555.761719 L 365.042969 555.761719 L 365.042969 513.5 L 403.171875 513.5 L 403.171875 518.984375 L 410.5 518.984375 L 410.5 498.179688 L 452.726563 498.179688 L 452.726563 514.230469 L 486.246094 514.230469 L 486.246094 474.988281 L 511.21875 474.988281 L 511.21875 492.746094 L 518.074219 492.746094 L 518.074219 480.792969 L 542.496094 480.792969 L 542.496094 520.839844 L 565.359375 520.839844 L 565.359375 484.171875 L 588.699219 484.171875 L 588.699219 510.777344 L 601.390625 510.777344 L 601.390625 493.171875 L 613.171875 493.171875 L 613.171875 528.835938 L 617.179688 528.835938 L 617.179688 499.511719 L 642.996094 499.511719 L 642.996094 519.035156 L 675.773438 519.035156 " transform="matrix(1,0,0,1,-66,-5)"/>
<path style="fill:none;stroke-width:1;stroke-linecap:square;stroke-linejoin:miter;stroke:rgb(0%,0%,0%);stroke-opacity:1;stroke-miterlimit:3.25;" d="M 179.929688 742.992188 L 194.550781 742.992188 L 194.550781 709.433594 L 209.355469 709.433594 L 209.355469 719.058594 L 226.371094 719.058594 L 226.371094 700.832031 L 251.6875 700.832031 L 251.6875 724.207031 L 258.613281 724.207031 L 258.613281 702.945313 L 269.851563 702.945313 L 269.851563 710.59375 L 290.375 710.59375 L 290.375 696.25 L 321.765625 696.25 L 321.765625 710.507813 L 347.074219 710.507813 L 347.074219 698.859375 L 365.667969 698.859375 L 365.667969 727.027344 L 389.859375 727.027344 L 389.859375 711.59375 L 411.046875 711.59375 L 411.046875 747.238281 L 429.761719 747.238281 L 429.761719 723.074219 L 465.070313 723.074219 L 465.070313 730.628906 L 474.96875 730.628906 L 474.96875 723.789063 L 504.828125 723.789063 L 504.828125 740.710938 L 533.222656 740.710938 L 533.222656 708.34375 L 555.207031 708.34375 L 555.207031 733.570313 L 561.257813 733.570313 L 561.257813 724.269531 L 568.707031 724.269531 L 568.707031 740.691406 L 575.105469 740.691406 L 575.105469 714.429688 L 597.988281 714.429688 L 597.988281 721.96875 L 610.546875 721.96875 L 610.546875 709.789063 L 646.363281 709.789063 L 646.363281 718.941406 L 650.070313 718.941406 " transform="matrix(1,0,0,1,-66,-5)"/>
<path style="fill:none;stroke-width:1;stroke-linecap:square;stroke-linejoin:miter;stroke:rgb(0%,0%,0%);stroke-opacity:1;stroke-miterlimit:3.25;" d="M 130.007813 884.609375 L 135.820313 884.609375 L 135.820313 843.117188 L 140.699219 843.117188 L 140.699219 890.285156 L 177.59375 890.285156 L 177.59375 885.328125 L 214.925781 885.328125 L 214.925781 913.730469 L 226.597656 913.730469 L 226.597656 878.5625 L 241.015625 878.5625 L 241.015625 918.195313 L 266.894531 918.195313 L 266.894531 871.605469 L 281.773438 871.605469 L 281.773438 905.644531 L 313.828125 905.644531 L 313.828125 900.648438 L 360.511719 900.648438 L 360.511719 921.722656 L 383.332031 921.722656 L 383.332031 882.019531 L 395.597656 882.019531 L 395.597656 901.457031 L 420.113281 901.457031 L 420.113281 888.878906 L 462.707031 888.878906 L 462.707031 911.953125 L 487.53125 911.953125 L 487.53125 898.058594 L 493.402344 898.058594 L 493.402344 944.835938 L 498.28125 944.835938 L 498.28125 931.679688 L 503.488281 931.679688 L 503.488281 963.953125 L 522.457031 963.953125 L 522.457031 950.597656 L 558.59375 950.597656 L 558.59375 985.804688 L 602.722656 985.804688 L 602.722656 963.253906 L 622.78125 963.253906 L 622.78125 971.136719 L 641.058594 971.136719 L 641.058594 961.75 L 676.386719 961.75 L 676.386719 1006.988281 L 699.992188 1006.988281 " transform="matrix(1,0,0,1,-66,-5)"/>
<path style="fill:none;stroke-width:1;stroke-linecap:square;stroke-linejoin:miter;stroke:rgb(0%,0%,0%);stroke-opacity:1;stroke-miterlimit:3.25;" d="M 72.800781 10.667969 L 72.800781 213.972656 " transform="matrix(1,0,0,1,-66,-5)"/>
<path style="fill:none;stroke-width:1;stroke-linecap:square;stroke-linejoin:miter;stroke:rgb(0%,0%,0%);stroke-opacity:1;stroke-miterlimit:3.25;" d="M 72.800781 213.972656 L 72.800781 417.28125 " transform="matrix(1,0,0,1,-66,-5)"/>
<path style="fill:none;stroke-width:1;stroke-linecap:square;stroke-linejoin:miter;stroke:rgb(0%,0%,0%);stroke-opacity:1;stroke-miterlimit:3.25;" d="M 72.800781 417.28125 L 72.800781 620.589844 " transform="matrix(1,0,0,1,-66,-5)"/>
<path style="fill:none;stroke-width:1;stroke-linecap:square;stroke-linejoin:miter;stroke:rgb(0%,0%,0%);stroke-opacity:1;stroke-miterlimit:3.25;" d="M 72.800781 620.589844 L 72.800781 823.898438 " transform="matrix(1,0,0,1,-66,-5)"/>
<path style="fill:none;stroke-width:1;stroke-linecap:square;stroke-linejoin:miter;stroke:rgb(0%,0%,0%);stroke-opacity:1;stroke-miterlimit:3.25;" d="M 72.800781 823.898438 L 72.800781 1027.207031 " transform="matrix(1,0,0,1,-66,-5)"/>
<path style="fill:none;stroke-width:1;stroke-linecap:square;stroke-linejoin:miter;stroke:rgb(0%,0%,0%);stroke-opacity:1;stroke-miterlimit:3.25;" d="M 758.199219 10.667969 L 758.199219 213.972656 " transform="matrix(1,0,0,1,-66,-5)"/>
<path style="fill:none;stroke-width:1;stroke-linecap:square;stroke-linejoin:miter;stroke:rgb(0%,0%,0%);stroke-opacity:1;stroke-miterlimit:3.25;" d="M 758.199219 213.972656 L 758.199219 417.28125 " transform="matrix(1,0,0,1,-66,-5)"/>
<path style="fill:none;stroke-width:1;stroke-linecap:square;stroke-linejoin:miter;stroke:rgb(0%,0%,0%);stroke-opacity:1;stroke-miterlimit:3.25;" d="M 758.199219 417.28125 L 758.199219 620.589844 " transform="matrix(1,0,0,1,-66,-5)"/>
<path style="fill:none;stroke-width:1;stroke-linecap:square;stroke-linejoin:miter;stroke:rgb(0%,0%,0%);stroke-opacity:1;stroke-miterlimit:3.25;" d="M 758.199219 620.589844 L 758.199219 823.898438 " transform="matrix(1,0,0,1,-66,-5)"/>
<path style="fill:none;stroke-width:1;stroke-linecap:square;stroke-linejoin:miter;stroke:rgb(0%,0%,0%);stroke-opacity:1;stroke-miterlimit:3.25;" d="M 758.199219 823.898438 L 758.199219 1027.207031 " transform="matrix(1,0,0,1,-66,-5)"/>
<path style="fill:none;stroke-width:1;stroke-linecap:square;stroke-linejoin:miter;stroke:rgb(0%,0%,0%);stroke-opacity:1;stroke-miterlimit:3.25;" d="M 72.800781 10.667969 L 758.199219 10.667969 " transform="matrix(1,0,0,1,-66,-5)"/>
<path style="fill:none;stroke-width:1;stroke-linecap:square;stroke-linejoin:miter;stroke:rgb(0%,0%,0%);stroke-opacity:1;stroke-miterlimit:3.25;" d="M 72.800781 1027.207031 L 758.199219 1027.207031 " transform="matrix(1,0,0,1,-66,-5)"/>
</g>
</svg>
